/* XPM */
static char *_1389624226645bee950edfe6a5448ecIhKXxKFw6JY4wtR2[] = {
/* columns rows colors chars-per-pixel */
"32 32 119 2 ",
"   c None",
".  c #452F31",
"X  c #4B3432",
"o  c #533D33",
"O  c #5C4635",
"+  c #5D4934",
"@  c #624E34",
"#  c #644D38",
"$  c #665035",
"%  c #695536",
"&  c #6D5937",
"*  c #695339",
"=  c #6F5C38",
"-  c #725E37",
";  c #735E3A",
":  c #726037",
">  c #766238",
",  c #7B653C",
"<  c #7C6441",
"1  c #816E3A",
"2  c #887537",
"3  c #86723B",
"4  c #8B763E",
"5  c #8B793B",
"6  c #907D3C",
"7  c #836A44",
"8  c #886F44",
"9  c #887042",
"0  c #8B7941",
"q  c #947E42",
"w  c #9D8B3F",
"e  c #C6B53B",
"r  c #CAB83A",
"t  c #D2C038",
"y  c #D9C839",
"u  c #EDDB29",
"i  c #EEDD32",
"p  c #EFDF3D",
"a  c #F1E02E",
"s  c #F6E532",
"d  c #F3E33C",
"f  c #FAEA3E",
"g  c #FFF33E",
"h  c #968042",
"j  c #9E8746",
"k  c #A08749",
"l  c #A78F4A",
"z  c #A99444",
"x  c #B69F4B",
"c  c #B7A642",
"v  c #BBAA45",
"b  c #B7A04C",
"n  c #C0AF44",
"m  c #C3B245",
"M  c #CCBB46",
"N  c #C7B449",
"B  c #D0BF40",
"V  c #D4C446",
"C  c #D5C548",
"Z  c #D7C848",
"A  c #DCCC4A",
"S  c #DFD049",
"D  c #D4C65F",
"F  c #D8CA5C",
"G  c #E0CE48",
"H  c #E6D544",
"J  c #ECDB40",
"K  c #E4D44C",
"L  c #ECDC4D",
"P  c #F0DF4F",
"I  c #E3D250",
"U  c #EDDC51",
"Y  c #F4E442",
"T  c #F7E845",
"R  c #F9EA46",
"E  c #F4E54D",
"W  c #F7E94D",
"Q  c #FAEB4D",
"!  c #FFF244",
"~  c #FFFC47",
"^  c #FFF44E",
"/  c #FFFC4C",
"(  c #F3E451",
")  c #FFF552",
"_  c #FFFD51",
"`  c #D5C760",
"'  c #EEE163",
"]  c #EFE36A",
"[  c #F3E664",
"{  c #FCEF62",
"}  c #F0E46A",
"|  c #F6EB6D",
" . c #FAEE6A",
".. c #FFF763",
"X. c #EFE470",
"o. c #F0E575",
"O. c #F2E87D",
"+. c #FCF170",
"@. c #F3EDA9",
"#. c #F7F1A6",
"$. c #F9F3A6",
"%. c #FCF6AB",
"&. c #FAF4AF",
"*. c #FEF8AA",
"=. c #FAF4B0",
"-. c #FCF8BE",
";. c #FCF8BF",
":. c #FDF9C5",
">. c #FCF8C6",
",. c #FDF9C7",
"<. c #FFFBC7",
"1. c #FEFBCB",
"2. c #FBF8CD",
"3. c #FEFBCF",
"4. c #FFFECE",
"5. c #FFFED3",
"6. c #FFFFD5",
"7. c #FEFCD7",
"8. c #FFFDD8",
/* pixels */
"                        O * # + + # * +                         ",
"                        1 q 4 3 3 4 q 1                         ",
"                    . - v A C M M C A v : o $ :                 ",
"                    ; b U _ ! T T ! / K z 9 8 &                 ",
"                O 1 N ( W W Y p p Y Q ( L N 4 * % -             ",
"                o k U / T L ' X.X.' ( ! / S 1 # 7 ;             ",
"                X q K ! a U #.8.6.%.{ ! ~ Z > O < ;             ",
"                > z G W ( o.=.5.6.@.F y Y A w , , &             ",
"            O 1 m H J [ $.&.O.[  .D 0 5 V Q L m 3 $ % =         ",
"            + l L ~ d ] 3.1.' u s e $ $ N _ _ K 5 * 7 -         ",
"            + j K ! d ] :.:.' i d e & & M ^ _ A 3 * < -         ",
"            + h A R p ] ;.;.] p T M > > M ^ ^ C 3 * > =         ",
"            + q A R p ] ;.;.] p T M > > M ^ ^ C 3 * ; =         ",
"            + q A R p ] ;.;.] p T M > > M ^ ^ C 3 * ; =         ",
"            + q A R p ] ;.;.] p T M > > M ^ ^ C 3 * ; =         ",
"            + q A R p ] ;.;.] p T M > > M ^ ^ C 3 * ; =         ",
"            + q A R p ] ;.;.] p T M > > M ^ ^ C 3 * ; =         ",
"            + q A R p ] ;.;.] p T M > > M ^ ^ C 3 * ; =         ",
"            + q A R p ] ;.;.] p T M > > M ^ ^ C 3 * ; =         ",
"            + q A R p ] ;.;.] p T M > > M ^ ^ C 3 * ; =         ",
"            + h A R p ] ;.;.} d R M > > M ^ ^ C 3 * > =         ",
"            + j K ! d ] :.:.| f ! M & & M ^ _ A 3 * < -         ",
"            + l L ~ d ] 2.4.+.g ~ V % @ N _ _ K 5 * 7 -         ",
"            O 1 m H J [ *.@.` r B c 3 6 C Q L m 3 $ % =         ",
"                > z K ) ..F 0 + @ 3 n L Q A w , , &             ",
"                X q I / ! t 2 + + 5 K _ _ Z > O < ;             ",
"                o k U / R H M N N V L ^ _ S 1 # 7 ;             ",
"                O 1 N P E Q ^ ) ^ ^ Q E L N 4 * % -             ",
"                    ; x L _ _ ^ ^ _ _ K z 9 8 &                 ",
"                    . - v A C M M C A v : o $ :                 ",
"                        1 q 4 3 3 4 q 1                         ",
"                        O * # + + # * O                         "
};
