/* XPM */
static char *afc65010dd3d4de1816c3f85fe7ffbd7[] = {
/* columns rows colors chars-per-pixel */
"32 32 161 2 ",
"   c None",
".  c black",
"X  c #070709",
"o  c #120F00",
"O  c #121109",
"+  c #0C0D19",
"@  c #373001",
"#  c #3A3201",
"$  c #2A2715",
"%  c #2B2814",
"&  c #3A3619",
"*  c #363219",
"=  c #181A26",
"-  c #232425",
";  c #3B3828",
":  c #272833",
">  c #2D2F3D",
",  c #303136",
"<  c #303239",
"1  c #514604",
"2  c #695C09",
"3  c #786909",
"4  c #7D701E",
"5  c #504B26",
"6  c #55502B",
"7  c #655D2C",
"8  c #645D31",
"9  c #696234",
"0  c #6A6338",
"q  c #70693A",
"w  c #7C733A",
"e  c #7D7437",
"r  c #383A48",
"t  c #323442",
"y  c #3F4045",
"u  c #404146",
"i  c #46474F",
"p  c #47484D",
"a  c #504D40",
"s  c #59595D",
"d  c #6A6757",
"f  c #716E5B",
"g  c #77735C",
"h  c #5E5F63",
"j  c #616164",
"k  c #6F6E66",
"l  c #63646B",
"z  c #6A6A6E",
"x  c #676976",
"c  c #6B6C73",
"v  c #77787B",
"b  c #7B7B7D",
"n  c #8E7B01",
"m  c #8F7D0A",
"M  c #917F0A",
"N  c #897915",
"B  c #877A25",
"V  c #877E42",
"C  c #9B8700",
"Z  c #9C890E",
"A  c #97840C",
"S  c #9E8C14",
"D  c #A28C00",
"F  c #A18D0E",
"G  c #AA9301",
"H  c #B49C00",
"J  c #AE9910",
"K  c #A79314",
"L  c #B59F17",
"P  c #BEA400",
"I  c #B7A117",
"U  c #BAA413",
"Y  c #C7AB00",
"T  c #CEB200",
"R  c #D2B500",
"E  c #C4AC18",
"W  c #CBB318",
"Q  c #D7BD1B",
"!  c #DBC11C",
"~  c #E6C600",
"^  c #E8C700",
"/  c #EACA00",
"(  c #F0CF01",
")  c #F5D405",
"_  c #F9D700",
"`  c #FAD901",
"'  c #F5D50C",
"]  c #F7D80B",
"[  c #FADA0A",
"{  c #E9CD1C",
"}  c #EED016",
"|  c #ECD01E",
" . c #F5D612",
".. c #F7D813",
"X. c #FCDC15",
"o. c #F1D51C",
"O. c #FBDD1C",
"+. c #FFE300",
"@. c #FFEC00",
"#. c #FFF600",
"$. c #FFFD00",
"%. c #FFF10D",
"&. c #FFE216",
"*. c #FFE11C",
"=. c #FFE91E",
"-. c #FBDE22",
";. c #F6DA28",
":. c #F9DE30",
">. c #F9DF3A",
",. c #FFE223",
"<. c #FFEB23",
"1. c #FFE32C",
"2. c #FFF323",
"3. c #FFFF27",
"4. c #FFFF2A",
"5. c #FFE435",
"6. c #FCE23C",
"7. c #9C914D",
"8. c #9D9351",
"9. c #BCAE50",
"0. c #BFB152",
"q. c #C7B852",
"w. c #C2B563",
"e. c #D4C45E",
"r. c #FEE545",
"t. c #FFE74A",
"y. c #FFEA4E",
"u. c #FEE750",
"i. c #FFEA53",
"p. c #FFEB5C",
"a. c #F0DC60",
"s. c #E8D97A",
"d. c #FFEB66",
"f. c #FFEC6C",
"g. c #FFF364",
"h. c #FFF16B",
"j. c #FFEC74",
"k. c #FFEE7C",
"l. c #FFFB72",
"z. c #FFFF7A",
"x. c #787980",
"c. c #8B8C8E",
"v. c #858587",
"b. c #92918F",
"n. c #8E8E92",
"m. c #939496",
"M. c #97989D",
"N. c #999A9A",
"B. c #9D9EA2",
"V. c #FFEF87",
"C. c #FFEF89",
"Z. c #FFF28B",
"A. c #FFFB8E",
"S. c #FFF196",
"D. c #FFF191",
"F. c #FFFF92",
"G. c #FFFF93",
"H. c #FFFF9B",
"J. c #FFFF9A",
"K. c #FFF29A",
"L. c #FFFFA0",
/* pixels */
"                      , . . . . . . . . +                       ",
"                      a % $ $ $ $ $ $ % ;                       ",
"              s . . . w.F.Z.Z.Z.Z.Z.Z.F.s.. . . :               ",
"              d & & * e.z.h.h.h.h.h.h.l.a.# @ # 6               ",
"          l . 7.J.A.F.i.6.,.*.*.*.*.*.*.*.<.<.3.W . >           ",
"          f 5 0.l.d.d.6.;.X...X.X.X.X.X.X.,.,.2.! 1 8           ",
"      c . V L.p.6.1.*.( / / / / / / / / / ,.,.,.,.3.U . r       ",
"    m.g 9 9.l.t.5.O...' ' ' ' ' ' ' ' ' ' ..X.,.,.<.Q 2 0 m.    ",
"  c.. w H.g.>.1.,.) ~ O.,.*.&.&.&.&.*.,.,./ / ,.,.-.,.3.J . j   ",
"  m.. w F.i.1.O.'  . .O.,.r.i.u.u.i.t.,.*. .'  .X.,.,.2.K . z   ",
"  M.. q H.y.*.) ~ X.1.&.X.k.K.D.D.S.Z.,.,.,.O.~ / &.&.2.S . x   ",
"z g 8.q.g.:.'  ...O.*.t.p.r.6.6.6.6.6.....,.,. .-.p.t.=.! S e z ",
". 7 H.g.6.o.^ X.,.,.&.j.S.O._ _ _ _ _ ) ) ,.,.*.6.S.f.O.<.4.A . ",
". 9 F.p.1. ./ X.,.*.*.f.Z.-._ [ [ [ [ ) ' ,.,.&.5.Z.d.*.&.%.m . ",
". 9 F.i.&.' / X.,.*.*.f.Z.O._ [ [ [ [ ) ' ,.,.&.5.Z.d.*.X.@.n . ",
". 9 F.i.&.' / X.,.*.*.f.Z.O._ [ [ [ [ ) ' ,.,.&.5.Z.d.*.X.@.n . ",
". 9 F.i.&.' / X.,.*.*.f.Z.O._ [ [ [ [ ) ' ,.,.&.5.Z.d.*.X.@.n . ",
". 9 F.i.&.' / X.,.*.*.f.Z.O._ [ [ [ [ ) ' ,.,.&.5.Z.d.*.X.@.n . ",
". 9 F.i.&.' / X.,.*.*.f.Z.O._ [ [ [ [ ) ' ,.,.&.5.Z.d.*.X.@.n . ",
". 8 H.i.*.' / X.,.,.*.f.Z.-._ [ [ [ [ ) ) ,.,.X.5.D.f.*.&.#.n . ",
"X 0 A.u.*.' / ..,.*.*.f.V.O._ [ [ [ [ ) ' ,.,.*.5.V.d.*.X.+.n X ",
"  b.O N 2.*.,.' / O.,.1.1.' ) ) ) ) ) *.,.X.1.V.f.,.*.@.G o k   ",
"  n.. 3 2.,.,.' / X.,.*.*.] ) ' ) ) ' ,.,.,.5.V.f.&.X.@.D . l   ",
"  v.. 3 3.<.,.,.,.) / X.*.&.*.*.&.&.&.X.,.V.j.,.,.,.&.$.G . s   ",
"  N.- 4 { o.,.,.,.' / -.5.1.1.5.1.1.1.1.5.k.f.&.&.*. .~ A - v   ",
"      v . m 3.<.,.*.*.f.Z.V.V.V.V.V.V.Z.k.,.*.,.*.$.P . p       ",
"      B.< B Q | ,.,.*.p.j.f.f.f.f.f.f.j.d.X.X.*. .R Z < x.      ",
"          h . F 3.2.2.,.*.*.*.*.,.,.,.,.*.@.@.$.T . >           ",
"          c.u B E I L } &.X.X.X.X.X.X.&. .H H P Z y c           ",
"              i . . . Y $.@.@.@.@.@.@.#./ . . . =               ",
"              m.h j l N D C C C C C C C M h j h b               ",
"                      t . . . . . . . . +                       "
};
