/* XPM */
static char *c2aae865a544452885f0b0fc7e29d0f9[] = {
/* columns rows colors chars-per-pixel */
"32 32 71 1 ",
"  c None",
". c black",
"X c #050500",
"o c #151100",
"O c #1D1A04",
"+ c #231D00",
"@ c #231E00",
"# c #241E00",
"$ c #251F00",
"% c #272000",
"& c #272100",
"* c #272200",
"= c #282200",
"- c #282300",
"; c #2B2606",
": c #2C2706",
"> c #2E2806",
", c #655700",
"< c #535356",
"1 c #535457",
"2 c #545457",
"3 c #555557",
"4 c gray34",
"5 c #555558",
"6 c #565659",
"7 c #57585B",
"8 c #59595C",
"9 c #5C5D60",
"0 c #5D5D60",
"q c #5D5E61",
"w c #5F6060",
"e c #606060",
"r c #968200",
"t c #988300",
"y c #9E8900",
"u c #A38C00",
"i c #A48E00",
"p c #A79106",
"a c #B29A00",
"s c #B09B16",
"d c #B09B17",
"f c #B59F17",
"g c #B19C18",
"h c #B5A017",
"j c #F2D100",
"k c #F3D200",
"l c #F4D300",
"z c #F6D400",
"x c #F6D500",
"c c #FEDC00",
"v c #FFDD00",
"b c #FFDE00",
"n c #F8D809",
"m c #FBDA09",
"M c #FFE500",
"N c #FFE700",
"B c #FFE30A",
"V c #FFF100",
"C c #FFE722",
"Z c #FFE922",
"A c #FFEA23",
"S c #FFED23",
"D c #FFEE23",
"F c #FFEF23",
"G c #FFE824",
"H c #FFEB25",
"J c #FFF023",
"K c #FFF324",
"L c #FFF526",
"P c #FFF925",
"I c #FFFB25",
/* pixels */
"            e.......            ",
"            w.O>;:X.            ",
"            9.hIFJ=.            ",
"            9.fIFF=.            ",
"            9.sKCA%.            ",
"            6.sKCA%.            ",
"            <.sKCA%.            ",
"            1.sKCA%.            ",
"            1.sKCA%.            ",
"            <.sKCA%.            ",
"            6.sKCA%.            ",
"            9.sKCA%.            ",
"            9.sKCA%.            ",
"            9.sKCA%.            ",
"            9.gLGG%.            ",
"            9.pBmm#.            ",
"            7.ubjl@.            ",
"            <.ibjz@.            ",
"            1.ibjz@.            ",
"            3.ibjz@.            ",
"            1.ibjz@.            ",
"            3.ibjz@.            ",
"            9.ibjz#.            ",
"            9.ibjz#.            ",
"            9.ibjz#.            ",
"            9.ibjz#.            ",
"            9.ibjz#.            ",
"            8.ibjz#.            ",
"            <.iblz@.            ",
"            1.aVNN%.            ",
"            3.,yrto.            ",
"            3.......            "
};
