/* XPM */
static char *becc6a7c4a8a423bbc81779e555f5418xwpJszkfkfDCgkF1[] = {
/* columns rows colors chars-per-pixel */
"32 32 218 2 ",
"   c black",
".  c black",
"X  c #5A4229",
"o  c #1A0000",
"O  c #67502F",
"+  c #826E42",
"@  c #826E40",
"#  c #674D2F",
"$  c black",
"%  c #412819",
"&  c #745D39",
"*  c #735D38",
"=  c #3F3F1F",
"-  c #604430",
";  c #654D30",
":  c #745E39",
">  c #FFFFB5",
",  c #FFFFB6",
"<  c #FFFF99",
"1  c #FFFFB4",
"2  c #654D2D",
"3  c #604429",
"4  c #3C281A",
"5  c #5B4429",
"6  c #826E41",
"7  c #FFFFD8",
"8  c None",
"9  c #FBEB6D",
"0  c #FFFFC2",
"q  c #826E40",
"w  c #3F2718",
"e  c #5B4429",
"r  c #FEFEE1",
"t  c #F9EFA1",
"y  c #FFFFC9",
"u  c #3E241A",
"i  c #5B442A",
"p  c #FDEF7B",
"a  c #422616",
"s  c #5B4429",
"d  c #5D442A",
"f  c #5B442A",
"g  c #5C442A",
"h  c #F9E760",
"j  c #FBEB6E",
"k  c #5B442B",
"l  c #FFF991",
"z  c #F1E270",
"x  c #F2E478",
"c  c #FFFB99",
"v  c #5B442A",
"b  c #836E43",
"n  c #FFF896",
"m  c #F2E262",
"M  c #F6E566",
"N  c #FFF997",
"B  c #5D432E",
"V  c #644D2F",
"C  c #745E39",
"Z  c #FEFEA5",
"A  c #FFF384",
"S  c #F2E270",
"D  c #F6E674",
"F  c #FFF989",
"G  c #FEFEA6",
"H  c #402717",
"J  c #715B37",
"K  c #FEF7B5",
"L  c #F9F2B0",
"P  c #725C37",
"I  c #170000",
"U  c #4E3417",
"Y  c #71592A",
"T  c white",
"R  c #F6F8F2",
"E  c #755E2F",
"W  c #553917",
"Q  c black",
"!  c #402303",
"~  c #7D6A57",
"^  c #6E5B48",
"/  c #462A0A",
"(  c #A69B95",
")  c #F8F7FC",
"_  c #C2C1C6",
"`  c #7F746E",
"'  c #1E0000",
"]  c white",
"[  c #FEFEFE",
"{  c #D0D1D3",
"}  c #FEFEFE",
"|  c #FEFEFE",
" . c #D0D0D0",
".. c #F6FEFE",
"X. c white",
"o. c #FEFEFE",
"O. c #CDCDCD",
"+. c #CACACA",
"@. c white",
"#. c gray76",
"$. c #6A4F30",
"%. c #634A2D",
"&. c #5C442A",
"*. c #5C452B",
"=. c #634A2E",
"-. c #967F4B",
";. c #8E7846",
":. c #877245",
">. c #88744A",
",. c #8F7A4E",
"<. c #96804D",
"1. c #C2B168",
"2. c #EADB80",
"3. c #E0D17A",
"4. c #D8C97A",
"5. c #D9CC83",
"6. c #E2D589",
"7. c #EADC85",
"8. c #C2B167",
"9. c #BCA567",
"0. c #FDEF99",
"q. c #FFFFA7",
"w. c #FFFA92",
"e. c #FEF2A4",
"r. c #BDA66B",
"t. c #CFBC6F",
"y. c #FFF19A",
"u. c #FFFFBC",
"i. c #FFFDB8",
"p. c #F8E769",
"a. c #FFFFD7",
"s. c #FFF4A6",
"d. c #CEBC6E",
"f. c #AA9054",
"g. c #FAEA89",
"h. c #FFFFB5",
"j. c #FFFACF",
"k. c #F7ED98",
"l. c #EBD74C",
"z. c #EBD74F",
"x. c #FFFFB6",
"c. c #FBEB8D",
"v. c #AA9057",
"b. c #A1884F",
"n. c #F0E082",
"m. c #FFFBCF",
"M. c #F3E685",
"N. c #EBD953",
"B. c #E9D545",
"V. c #E9D549",
"C. c #EDDB5C",
"Z. c #FFFF9C",
"A. c #F2E390",
"S. c #A28A57",
"D. c #99814E",
"F. c #E7D782",
"G. c #FFFFA9",
"H. c #FFFEBB",
"J. c #F8ED9C",
"K. c #ECD954",
"L. c #E7D137",
"P. c #EAD647",
"I. c #E9D547",
"U. c #E7D236",
"Y. c #F3E04F",
"T. c #FFFA8C",
"R. c #E9DB90",
"E. c #9A8356",
"W. c #9A8353",
"Q. c #E8DA8C",
"!. c #FFFC95",
"~. c #F9E96F",
"^. c #ECD952",
"/. c #E9D546",
"(. c #EBD74E",
"). c #EAD648",
"_. c #E8D239",
"`. c #F4E152",
"'. c #FFFA8D",
"]. c #E9DB8F",
"[. c #A38B59",
"{. c #F2E494",
"}. c #FFFF95",
"|. c #E9D442",
" X c #E9D445",
".X c #EAD649",
"XX c #E9D64A",
"oX c #EBD851",
"OX c #FFFF99",
"+X c #F2E492",
"@X c #A28A58",
"#X c #AB915B",
"$X c #FCED94",
"%X c #EAD64E",
"&X c #E7D23B",
"*X c #EAD750",
"=X c #FCED93",
"-X c #AB915A",
";X c #CFBE74",
":X c #FFF299",
">X c #FFFEA9",
",X c #EBD748",
"<X c #FFFEAA",
"1X c #BFA86A",
"2X c #FFF39C",
"3X c #CCB96E",
"4X c #FFF7AD",
"5X c #F9F0A5",
"6X c #FDEF97",
"7X c #CDBB70",
"8X c #BFA978",
"9X c #F9F2DB",
"0X c #D4CEB7",
"qX c #B49F6D",
"wX c #EAE7EC",
"eX c white",
"rX c #F5FBFF",
"tX c #B8B5BA",
/* pixels */
"                      . X $.%.&.*.=.$.X .                       ",
"                    o O + -.;.:.>.,.<.@ # o                     ",
"                  $ % & 1.2.3.4.5.6.7.8.* % $                   ",
"              = - ; : 9.0.> , q.w.< 1 e.r.: 2 3 =               ",
"              4 5 6 t.y.u.7 8 i.p.9 0 a.s.d.q 5 4               ",
"              w e f.g.h.7 r j.k.l.z.t y x.c.v.e w               ",
"              u i b.n.x.8 m.M.N.B.V.C.p Z.A.S.i u               ",
"              a s D.F.G.H.J.K.L.P.I.U.Y.T.R.E.d a               ",
"              a f W.Q.!.~.^./.I.(.)._.`.'.].E.d a               ",
"              u g [.{.}.h |. X.X.XXXoXj OX+X@Xi u               ",
"              w k #X$Xq.l z %X&X&X*Xx c G.=X-Xk w               ",
"              4 v b ;X:X>Xn m /.,XM N <Xy.;Xb v 4               ",
"              = B V C 1X2XZ A S D F G 2X1XC V B =               ",
"                  $ H J 3Xy.4XK L 5X6X7XP H $                   ",
"                    I U Y 8X9XT R 0XqXE W I                     ",
"                      Q ! ~ wXeXrXtX^ / Q                       ",
"                        I ( ) eXeX_ ` '                         ",
"                          ] [ eXeX{ ]                           ",
"                          } | eXeX ...                          ",
"                          X.o.eXeXO.+.                          ",
"                          @.o.eXeXO.#.                          ",
"                          @.o.eXeXO.#.                          ",
"                          @.o.eXeXO.#.                          ",
"                          @.o.eXeXO.#.                          ",
"                          @.o.eXeXO.#.                          ",
"                          @.o.eXeXO.#.                          ",
"                          @.o.eXeXO.#.                          ",
"                          @.o.eXeXO.#.                          ",
"                          @.o.eXeXO.#.                          ",
"                          @.o.eXeXO.#.                          ",
"                          @.o.eXeXO.#.                          ",
"                          @.o.eXeXO.#.                          "
};
