/* XPM */
static char *f6d4066ef47442cdc40105edd7d3c1d4JzzIvqd08drkBDg2[] = {
/* columns rows colors chars-per-pixel */
"32 32 205 2 ",
"   c None",
".  c #000000",
"X  c #070809",
"o  c #0B0C0C",
"O  c #040509",
"+  c #1D0000",
"@  c #1B0B00",
"#  c #170900",
"$  c #0C0E10",
"%  c #0A1116",
"&  c #121314",
"*  c #1B1B1B",
"=  c #161819",
"-  c #230500",
";  c #2B0C01",
":  c #220F00",
">  c #320D00",
",  c #241400",
"<  c #2C1901",
"1  c #2E1606",
"2  c #3E1200",
"3  c #331C01",
"4  c #3B1D00",
"5  c #331D0A",
"6  c #221C1C",
"7  c #3B2105",
"8  c #3F280F",
"9  c #2E201B",
"0  c #3E2913",
"q  c #161E24",
"w  c #262829",
"e  c #3F3322",
"r  c #343434",
"t  c #35393C",
"y  c #3C3C3B",
"u  c #333638",
"i  c #322F2E",
"p  c #421400",
"a  c #4B1A02",
"s  c #531B02",
"d  c #5C1000",
"f  c #6E1C00",
"g  c #651F00",
"h  c #731D00",
"j  c #432205",
"k  c #462608",
"l  c #47280A",
"z  c #4A290A",
"x  c #492405",
"c  c #542C0A",
"v  c #592C07",
"b  c #54300D",
"n  c #5D320E",
"m  c #513113",
"M  c #5A3414",
"N  c #442E15",
"B  c #692805",
"V  c #752700",
"C  c #782400",
"Z  c #742C02",
"A  c #792B01",
"S  c #743106",
"D  c #7C3305",
"F  c #7B360A",
"G  c #7D390E",
"H  c #6B3612",
"J  c #6D3913",
"K  c #663713",
"L  c #743B14",
"P  c #7B3D14",
"I  c #7D3F19",
"U  c #413E3B",
"Y  c #7C411B",
"T  c #784419",
"R  c #4F402C",
"E  c #5C4329",
"W  c #48443D",
"Q  c #584937",
"!  c #664022",
"~  c #654B31",
"^  c #6F543A",
"/  c #7C5237",
"(  c #383F43",
")  c #3B454B",
"_  c #454544",
"`  c #4A4A4A",
"'  c #4B4843",
"]  c #4B4F52",
"[  c #404B52",
"{  c #4D575E",
"}  c #575757",
"|  c #585858",
" . c #595448",
".. c #565E63",
"X. c #636262",
"o. c #73716D",
"O. c #812F00",
"+. c #823A0D",
"@. c #883809",
"#. c #823E15",
"$. c #8A410E",
"%. c #844017",
"&. c #8B4216",
"*. c #844219",
"=. c #8B4519",
"-. c #864B1A",
";. c #994A16",
":. c #914619",
">. c #94491B",
",. c #9A4D1C",
"<. c #954816",
"1. c #8A501B",
"2. c #9F501F",
"3. c #A2531F",
"4. c #8C4A21",
"5. c #864821",
"6. c #8B5428",
"7. c #9E5F26",
"8. c #925529",
"9. c #8E5835",
"0. c #935D3A",
"q. c #995D37",
"w. c #A35521",
"e. c #AA5520",
"r. c #A45F26",
"t. c #AB5A23",
"y. c #B15622",
"u. c #9F6026",
"i. c #99613F",
"p. c #A46429",
"a. c #AC692C",
"s. c #AB6327",
"d. c #B5692C",
"f. c #BA6E2E",
"g. c #B56227",
"h. c #BC702F",
"j. c #A3643C",
"k. c #BC7131",
"l. c #C37432",
"z. c #CB7D37",
"x. c #C77633",
"c. c #C97230",
"v. c #8D6143",
"b. c #92684D",
"n. c #A26A47",
"m. c #A46D4B",
"M. c #A76942",
"N. c #AA704E",
"B. c #AA7352",
"V. c #B07956",
"C. c #B67E5B",
"Z. c #997E6D",
"A. c #A57B60",
"S. c #928277",
"D. c #A58876",
"F. c #81878B",
"G. c #999999",
"H. c #959595",
"J. c #AD9382",
"K. c #B19C8E",
"L. c #AE9F95",
"P. c #AFA198",
"I. c #B2A59D",
"U. c #B5A194",
"Y. c #9EA3A4",
"T. c #9FAAB0",
"R. c #A7A6A3",
"E. c #B5ABA4",
"W. c #ABB7BF",
"Q. c #BCBCBC",
"!. c #A8ADB2",
"~. c #D5BFB1",
"^. c #CAB7A9",
"/. c #C2C0BE",
"(. c #BAC8D1",
"). c #C8C7C6",
"_. c #D8CFC9",
"`. c #CDD7DD",
"'. c #CFD8DD",
"]. c #CCD1D5",
"[. c #D4D2D1",
"{. c #DBD5D1",
"}. c #D5DADD",
"|. c #DDDCDC",
" X c #E7DACF",
".X c #E4D9D1",
"XX c #E9E0DC",
"oX c #CBD9E2",
"OX c #D4DDE3",
"+X c #D8DDE0",
"@X c #D8E2E8",
"#X c #DEEAF2",
"$X c #E4E5E7",
"%X c #ECEDED",
"&X c #EAE8E8",
"*X c #F1ECEA",
"=X c #FFF5EE",
"-X c #E0EEF7",
";X c #E4F3FC",
":X c #EDFCFF",
">X c #E6F8FF",
",X c #FEF9F3",
"<X c #F4FDFE",
"1X c #FEFEFE",
"2X c #F3F7FA",
/* pixels */
"                    @ c p.z.l.k.k.l.z.p.b @                     ",
"                    l T s.f.d.d.d.f.k.r.J j                     ",
"                @ l 6.a.t.w.3.w.w.w.w.w.,.L l ,                 ",
"                l -.f.l.w.&.&.:.:.:.:.,.e.,.L j                 ",
"            @ z 8.h.g.w.=.#.%.%.%.%.%.=.>.>.=.L j <             ",
"            z 1.l.c.w.&.#.#.%.%.%.%.%.%.%.=.,.>.L l             ",
"        # z 7.x.c.e.:.#.%.*.*.*.*.*.*.*.%.=.>.>.>.P l <         ",
"        z T a.s.$.D #.*.*.*.*.*.*.*.*.*.=.#.S Z #.Y J l         ",
"    @ z u.a.T x > a P >.=.*.*.*.*.*.*.=.,.P p ; 4 M *.P k <     ",
"    l -.l.d.n 5 e E T #.&.=.=.=.=.=.=.&.#.Y ~ R 8 c &.>.L l     ",
"3 b 6.d.g.;.Z / E.R.~ s F :.:.=.=.:.:.F a ^ )._.v.B +.=.=.H z 7 ",
"< n a.z.t.@.O.N.&XoXW - s S L L L P S s -  .1X1XC.A D =.>.I c 7 ",
": c p.z.t.@.O.m.XX(.u . + 2 x z z x p + . ( :X1XC.A D =.>.P z 3 ",
"z K 7.d.3.@.D m..XW.% . e ~ m j j m E 9 . q @X1XV.A F &.=.P c j ",
"p.r.w.,.=.+.D m..XT.. . !. Xn.g B 0.^.F.. O `.1XV.A D %.=.I J K ",
"z.f.w.&.#.F A n.{.(.) ..1X1XC.h C N.*XoX[ { ;X1XB.A D %.=.*.P L ",
"x.f.w.&.#.F A 0.).>X-X<X1X1Xm.f h i.[.:X;X<X1X,Xm.V D %.=.*.P L ",
"x.f.w.:.#.G D 6.K.{.,X1X=X^.8.f h 5.J._.=X1X,X~.0.A +.%.*.I L L ",
"z.k.w.:.%.I #.-.9.i.M.j.q.4.D A A D *.8.j.M.n.q.5.%.&.*.P L L P ",
"p.r.w.,.>.=.=.+.V V P *.I *.6.0.0.9.5.*.*.F f V G =.=.*.L J J J ",
"b J >.y.e.2.>.+.h G D.E.I.L.I.E.E.I.L.P.E.Z.B d Z Y Y I I J b z ",
", j P ;.<.&.F G 4.A./.@XOX'.'.'.`.}.OX#X;X).b.H B K H J L n l 3 ",
"    x v v a p ! U.{.].].+X@X@X+X}.$X2X1X1X2X).S.M 2 x v n z     ",
"    0 N 0 5 1 R Y.oX}.|.$X%X%X&X$X%X1X1X1X1X1X).Q ; ; 4 7 7     ",
"    W ' _ U y y ] F.}.1X1X1X1X1X1X1X1X1X1X1X1X<Xo.6             ",
"    t ( t t t w & u R.%X1X1X1X1X1X1X1X1X1X1X1X)...q             ",
"` u = $ $ $ o X . X u H.1X1X1X1X1X1X1X1X1X1XX.i = $ u ]         ",
"| y X . . . . . . . . _ Q.1X1X1X1X1X1X1X1XR.X . . X _ `         ",
"} y X . . . . . . . . X _ G.1X1X1X1X1X1XX.w . . . X _ `         ",
"` u * o . . . . . . . . . y [.1X1X1X%XG.X . . . o * u `         ",
"    y r o . . . . . . . . X         u * . . . o r y             ",
"    } _ & . . . . . . . . .         . . . . . & _ }             "
};
