/* XPM */
static char *_04a30478c9d4c8da15593709c346c91jNoBwUdp77ezaYbw[] = {
/* columns rows colors chars-per-pixel */
"32 32 204 2 ",
"   c None",
".  c #000000",
"X  c #070809",
"o  c #0B0B0B",
"O  c #00030A",
"+  c #1D0000",
"@  c #1B0B00",
"#  c #170900",
"$  c #0C0E10",
"%  c #0A1116",
"&  c #111213",
"*  c #1C1C1C",
"=  c #161819",
"-  c #230500",
";  c #2A0C02",
":  c #220F00",
">  c #360E00",
",  c #241400",
"<  c #2C1901",
"1  c #2F1607",
"2  c #341C02",
"3  c #391803",
"4  c #3A2105",
"5  c #3C240E",
"6  c #2E201B",
"7  c #191E24",
"8  c #22272B",
"9  c #292523",
"0  c #3F3322",
"q  c #343434",
"w  c #35393C",
"e  c #3C3C3C",
"r  c #343638",
"t  c #322F2E",
"y  c #431500",
"u  c #481902",
"i  c #531B02",
"p  c #5D1100",
"a  c #6E1C00",
"s  c #651F00",
"d  c #731D00",
"f  c #432305",
"g  c #4C2402",
"h  c #462608",
"j  c #47280A",
"k  c #4B2A0A",
"l  c #482708",
"z  c #532C0A",
"x  c #572B08",
"c  c #54300D",
"v  c #5B340E",
"b  c #432C14",
"n  c #4A3016",
"m  c #513113",
"M  c #5D3717",
"N  c #682805",
"B  c #752700",
"V  c #782400",
"C  c #742D02",
"Z  c #792B01",
"A  c #64320C",
"S  c #6A340F",
"D  c #743106",
"F  c #7C3305",
"G  c #7B360A",
"H  c #7F390D",
"J  c #6D3712",
"K  c #6C3912",
"L  c #653916",
"P  c #743B14",
"I  c #7B3C14",
"U  c #7E3F18",
"Y  c #433F3B",
"T  c #74421C",
"R  c #7C411A",
"E  c #7B4518",
"W  c #4F402C",
"Q  c #5C4329",
"!  c #50402E",
"~  c #4A463E",
"^  c #5D4E3D",
"/  c #654B31",
"(  c #6F543A",
")  c #7C5237",
"_  c #383F43",
"`  c #3B454B",
"'  c #434343",
"]  c #4A4A4A",
"[  c #4A4845",
"{  c #464D53",
"}  c #4D5459",
"|  c #575757",
" . c #5B5B5B",
".. c #595448",
"X. c #535F66",
"o. c #676562",
"O. c #812F00",
"+. c #823A0D",
"@. c #883809",
"#. c #823E15",
"$. c #8A410E",
"%. c #844017",
"&. c #8B4216",
"*. c #844219",
"=. c #8B4519",
"-. c #864B1A",
";. c #914619",
":. c #94491B",
">. c #9A4D1C",
",. c #9A4914",
"<. c #8A501B",
"1. c #9F501F",
"2. c #A2531F",
"3. c #8C4A21",
"4. c #864821",
"5. c #8B5428",
"6. c #9E5F26",
"7. c #925529",
"8. c #8E5835",
"9. c #935D3A",
"0. c #995D37",
"q. c #A35521",
"w. c #AA5520",
"e. c #A45F26",
"r. c #AB5A23",
"t. c #B05721",
"y. c #9F6026",
"u. c #99613F",
"i. c #A46429",
"p. c #AC692C",
"a. c #AB6327",
"s. c #B5692C",
"d. c #BA6E2E",
"f. c #B56227",
"g. c #BC702F",
"h. c #A3643C",
"j. c #BC7131",
"k. c #C37432",
"l. c #CB7D37",
"z. c #C77633",
"x. c #D17C36",
"c. c #C06729",
"v. c #8D6143",
"b. c #9D7257",
"n. c #986746",
"m. c #A26A47",
"M. c #A46D4B",
"N. c #A76942",
"B. c #AA704E",
"V. c #AA7352",
"C. c #B07956",
"Z. c #B67E5B",
"A. c #997A67",
"S. c #A48875",
"D. c #888B8D",
"F. c #8E8F90",
"G. c #8C9093",
"H. c #999999",
"J. c #A99486",
"K. c #B19C8E",
"L. c #AE9F95",
"P. c #AEA198",
"I. c #B2A59D",
"U. c #9FAAB0",
"Y. c #ABA9A4",
"T. c #B5ABA4",
"R. c #A8ADB2",
"E. c #ABB7BF",
"W. c #BABABA",
"Q. c #C0BDBC",
"!. c #D5BFB1",
"~. c #CAB7A9",
"^. c #BBC4C9",
"/. c #BECBD5",
"(. c #CBCBCC",
"). c #CAC8C7",
"_. c #D8CFC9",
"`. c #CDD7DD",
"'. c #CFD8DD",
"]. c #CBD2D7",
"[. c #D4D2D2",
"{. c #D3DADF",
"}. c #D9D6D4",
"|. c #E7DACF",
" X c #E3DAD5",
".X c #E9E0DC",
"XX c #CADAE4",
"oX c #D5DEE4",
"OX c #D8DDE0",
"+X c #D9E3E9",
"@X c #DDE9F1",
"#X c #E4E4E5",
"$X c #ECECED",
"%X c #EAE8E8",
"&X c #F1ECEA",
"*X c #FFF5EE",
"=X c #E0EEF7",
"-X c #E3F2FB",
";X c #EDFCFF",
":X c #E8F7FE",
">X c #FEF9F3",
",X c #F5FCFE",
"<X c #FFFFFE",
"1X c #F5F5F4",
/* pixels */
"                    @ z i.l.k.j.j.k.l.i.c @                     ",
"                    h T a.d.s.s.s.d.j.e.K f                     ",
"                @ j 5.p.r.q.2.q.q.q.q.q.>.P h ,                 ",
"                h -.d.k.q.&.&.;.;.;.;.>.w.>.P f                 ",
"            @ k 7.g.f.q.=.#.%.%.%.%.%.=.:.:.=.P h <             ",
"            k <.k.z.q.&.#.#.%.%.%.%.%.%.%.=.>.:.P h             ",
"        # k 6.z.c.w.;.#.%.*.*.*.*.*.*.*.%.=.:.:.:.I h <         ",
"        k E p.a.$.F #.*.*.*.*.*.*.*.*.*.=.#.D C #.R K h         ",
"    @ k y.p.T g > u I :.=.*.*.*.*.*.*.=.>.I y ; 3 v *.I l <     ",
"    j -.k.s.v 2 0 Q T #.&.=.=.=.=.=.=.&.#.R / W 5 x &.:.P h     ",
"2 c 5.s.f.,.C ) Y.Y./ i G ;.;.=.=.;.;.G i ( )._.v.N +.=.=.J k 4 ",
"< v p.x.r.@.O.V.%XXX~ - i D P P P P D i - ..<X<XZ.Z F =.:.U z 4 ",
": z i.l.r.@.O.M..X/.r . + > g k k g y + . _ :X<XZ.Z F =.:.I k 2 ",
"k L 6.s.2.@.F M.|.E.% . 0 / m f f m Q 6 . 7 +X<XC.Z G &.=.I z f ",
"i.e.q.>.=.+.F M.|.U.. . R.|.n.s N 9.~.D.. O `.<XC.Z G %.=.U J A ",
"l.d.q.&.#.G Z m.}.^.` X.<X<XZ.d V B.&XXX{ } :X<XV.Z F %.=.*.I P ",
"z.d.q.&.#.G Z 9.).:X=X,X<X<XM.a d u.[.;X-X,X<X>XM.B F %.=.*.I P ",
"z.d.q.;.#.G F 5.K.}.>X<X*X~.7.a d 4.J._.*X<X>X!.9.Z +.%.*.U P P ",
"l.j.q.;.%.U #.-.8.u.N.h.0.3.F Z Z F *.7.h.N.m.0.3.%.&.*.I P P I ",
"i.e.q.>.:.=.=.+.V B I *.U *.5.9.9.8.4.*.*.G a B H =.=.*.P J J J ",
"c K :.t.w.1.:.+.d H S.T.I.L.I.T.T.I.L.P.T.A.N p C R R U U J c k ",
", f P >.>.=.P G *.b.Q.+XoX'.'.'.`.oXoX@X-X).A.T A A A S J A h 2 ",
"    k S A x y L J.).(.].OX+X+XOX{.#X,X<X<X<X}.J.M > y g x g     ",
"    2 2 2 ; ; ^ ^.:X'.(.#X$X$X%X#X$X<X<X<X<X@XH.! 1 5 b n b     ",
"            9 o.(.,X#X#X1X<X<X<X<X<X<X<X<X<XG.] e e Y [ [ ~     ",
"            8 } F.W.#X<X<X<X<X<X<X<X<X<X<XW.' $ 8 r w w _ r     ",
"        { r & & 7 ] [.<X<X<X<X<X<X<X<X<XH.e X . X o $ $ $ = r ] ",
"        ] [ X . . X F.#X<X<X<X<X<X<X<XW.' . . . . . . . . X e | ",
"        ] [ X . . . *  .<X<X<X<X<X<XH.' X . . . . . . . . X e | ",
"        ] r * o . . . X H.$X<X<X<X[.e . . . . . . . . . o * r ] ",
"            e q o . . . * r         X . . . . . . . . o q e     ",
"            | [ & . . . . .         . . . . . . . . . & [ |     "
};
