/* XPM */
static char *_655a1fd90a943229a94834bfa2a717bhbpTlVQ4HYahrfKj[] = {
/* columns rows colors chars-per-pixel */
"32 32 180 2 ",
"   c None",
".  c black",
"X  c #050708",
"o  c #0A0B0C",
"O  c #1C0C00",
"+  c #0C0E10",
"@  c #141618",
"#  c #240000",
"$  c #210D00",
"%  c #2E0900",
"&  c #380700",
"*  c #330B00",
"=  c #380E00",
"-  c #330500",
";  c #231100",
":  c #2B1500",
">  c #2D1A00",
",  c #2E150C",
"<  c #3B1600",
"1  c #321A01",
"2  c #3C1B00",
"3  c #30160C",
"4  c #372005",
"5  c #3A2105",
"6  c #37200E",
"7  c #3B230F",
"8  c gray14",
"9  c #212528",
"0  c gray18",
"q  c #323232",
"w  c #33363A",
"e  c #363B3D",
"r  c #3C3C3B",
"t  c #421600",
"y  c #441900",
"u  c #4D1900",
"i  c #4D1500",
"p  c #551900",
"a  c #5A1F00",
"s  c #631E00",
"d  c #452305",
"f  c #4C2706",
"g  c #4B2B0B",
"h  c #532300",
"j  c #5E2701",
"k  c #512805",
"l  c #532D0B",
"z  c #5B2E0A",
"x  c #56320F",
"c  c #5B330D",
"v  c #402710",
"b  c #563310",
"n  c #5B3312",
"m  c #662200",
"M  c #622B04",
"N  c #6D2C03",
"B  c #732700",
"V  c #742D03",
"C  c #64350D",
"Z  c #68360E",
"A  c #743105",
"S  c #7B3305",
"D  c #743209",
"F  c #653610",
"G  c #6A3512",
"H  c #633810",
"J  c #6D3C13",
"K  c #6E3B1A",
"L  c #753714",
"P  c #743913",
"I  c #7C3C14",
"U  c #733C18",
"Y  c #5C3E24",
"T  c #433E3B",
"R  c #734114",
"E  c #784417",
"W  c #73401C",
"Q  c #51412F",
"!  c #554B3D",
"~  c #61472F",
"^  c #614024",
"/  c #764220",
"(  c #7C4827",
")  c #644B34",
"_  c #69513A",
"`  c #494541",
"'  c #46494A",
"]  c #4A4D4E",
"[  c #5D5242",
"{  c #545555",
"}  c #635543",
"|  c #655948",
" . c #765F49",
".. c #715946",
"X. c #953D05",
"o. c #823F13",
"O. c #9E480A",
"+. c #994309",
"@. c #864216",
"#. c #8B4316",
"$. c #84431B",
"%. c #8A4318",
"&. c #924619",
"*. c #94491B",
"=. c #994B1B",
"-. c #944A15",
";. c #A35B1B",
":. c #A6581D",
">. c #AE621F",
",. c #8B4C25",
"<. c #814722",
"1. c #914C23",
"2. c #8F5A26",
"3. c #965724",
"4. c #875839",
"5. c #8C5A39",
"6. c #845334",
"7. c #985B37",
"8. c #905E3E",
"9. c #985E3B",
"0. c #AA5923",
"q. c #A35728",
"w. c #9F633D",
"e. c #A76629",
"r. c #A9652A",
"t. c #AB6224",
"y. c #B76123",
"u. c #B0672A",
"i. c #B26B2C",
"p. c #BB6F2E",
"a. c #BA712F",
"s. c #A1633D",
"d. c #C47331",
"f. c #CC7934",
"g. c #946445",
"h. c #9B6340",
"j. c #9B7054",
"k. c #A56A45",
"l. c #BA764C",
"z. c #AD7757",
"x. c #A67759",
"c. c #AF7959",
"v. c #D5803E",
"b. c #D38756",
"n. c #888E91",
"m. c #9D9F9F",
"M. c #AF9888",
"N. c #AA9688",
"B. c #A79990",
"V. c #AC9B91",
"C. c #AFA39C",
"Z. c #B7A99F",
"A. c #B4A59C",
"S. c #ACACAC",
"D. c #BCABA0",
"F. c #C5B7AE",
"G. c #CAB9AF",
"H. c #C7BDB8",
"J. c #CCBFB8",
"K. c #CDC1BA",
"L. c #D2C4BB",
"P. c #D9C8BD",
"I. c #C8C7C3",
"U. c #CDCAC5",
"Y. c #D4D4D4",
"T. c #E6D7CD",
"R. c #F3DDD1",
"E. c #F9E1D3",
"W. c #CFDBE4",
"Q. c #D2DCE5",
"!. c #E1E2E2",
"~. c #E3EBEE",
"^. c #F9EFEA",
"/. c #FDF1EB",
"(. c #E5EFF6",
"). c #E9EFF0",
"_. c #E7F0F7",
"`. c #EBF0F0",
"'. c #F4FBFE",
"]. c #FEFFFE",
/* pixels */
"                                                                ",
"                                                                ",
"                                                                ",
"                                                                ",
"                                                                ",
"                                                                ",
"                                                                ",
"                                                                ",
"                                                                ",
"                                                                ",
"                                                                ",
"                                                                ",
"                                                                ",
"                                                                ",
"                        1 1 1 1 1 1 1 1                         ",
"                        x J J H H J J x                         ",
"            1 1 1 : $ g 2.a.i.r.r.i.a.3.l : 1 4 4 4             ",
"            n R J H c E u.f.d.d.d.d.f.r.J f l C Z l             ",
"    > : ; g 3.d.p.i.i.u.0.0.0.0.0.0.3.*.@.o.@.#.&.P d > 1 4     ",
"    b C h M -.>.:.;.;.;.=.*.*.=.=.*.%.I D A A S S N h h z g     ",
"O g 2.i.+.B u t y t < h o.=.*.&.&.*.*.I u * * = * t m S @.J g 1 ",
"l R t.v.b.c...! ! [ [ ) K L L P P P L W _ | } } [  .x.l.q.I z f ",
"e.;.O.l.E.].'.~.~.'.'.I.~ % < d d < * ) U.].'.`.).'.].R.k.V N F ",
"f.y.X.s.T.].]././.].].P.^ # * 2 < % # Y L.].]./.^.].].T.h.V D I ",
"y.:.-.1.k.z.k.s.s.s.k.2.V s m m a u i j ( 8.5.5.5.g.j.g.<.P I I ",
"#.%.I D m N $.,.$.I I ,.7.s.w.9.5.4.5.6./ G G K ( U a p M G J J ",
"z z k y & n M.K.A.V.D.G.L.L.L.L.K.K.K.J.F.Z.B.C.H.N.n - t f l l ",
"1 1 7 6 , Q m.W.(.'.].].].].].].].].].].].].'._.Q.m.Q 3 7 v 5 2 ",
"    T ` T r ' n.'.].].].].].].].].].].].].].].'.n.' r T ` T     ",
"    w e e 9 o r S.!.Y.Y.'.].].].].].].'.Y.Y.!.S.r o 9 e e w     ",
"] w @ + o X . o 8 q 0 q                 q 0 q 8 o . X o + @ w ] ",
"{ r o . . . . . . . . .                 . . . . . . . . . o r { "
};
