/* XPM */
static char *_2ea4dd11bad4320d3dbf15e2349ac821NR7W2F6OdyuJtyY[] = {
/* columns rows colors chars-per-pixel */
"32 32 224 2 ",
"   c None",
".  c black",
"X  c #000906",
"o  c #110000",
"O  c #06120D",
"+  c #040A17",
"@  c #081C19",
"#  c #100E12",
"$  c #2A1B17",
"%  c #09241D",
"&  c #143A36",
"*  c #0B2125",
"=  c #272B2B",
"-  c #3E2829",
";  c #393637",
":  c #313227",
">  c #34241C",
",  c #53031B",
"<  c #49361B",
"1  c #57381B",
"2  c #6D2200",
"3  c #673C17",
"4  c #7A3E0D",
"5  c #4E0E23",
"6  c #423424",
"7  c #493623",
"8  c #4C3925",
"9  c #533C26",
"0  c #593E20",
"q  c #552A36",
"w  c #463736",
"e  c #3A403F",
"r  c #68431C",
"t  c #7A4517",
"y  c #7A410F",
"u  c #5D4226",
"i  c #514B37",
"p  c #674626",
"a  c #734B23",
"s  c #7D4D21",
"d  c #765225",
"f  c #6C5636",
"g  c #765D38",
"h  c #6E5129",
"j  c #7C613A",
"k  c #3F3E4A",
"l  c #100D6E",
"z  c #273173",
"x  c #473E43",
"c  c #573E44",
"v  c #663F49",
"b  c #384745",
"n  c #244F44",
"m  c #385773",
"M  c #4A4D4C",
"N  c #424847",
"B  c #545656",
"V  c #564747",
"C  c #665551",
"Z  c #4C7A7F",
"A  c #6B6D6A",
"S  c #7B7B7B",
"D  c #747474",
"F  c #65706D",
"G  c #737A58",
"H  c #863802",
"J  c #812D00",
"K  c #B7002E",
"L  c #8C1033",
"P  c #FF153F",
"I  c #84430E",
"U  c #854815",
"Y  c #935214",
"T  c #835223",
"R  c #804F21",
"E  c #886637",
"W  c #9C692C",
"Q  c #912D51",
"!  c #AF2859",
"~  c #AC3365",
"^  c #8B1941",
"/  c #EE1750",
"(  c #F31D53",
")  c #CA254E",
"_  c #E2224E",
"`  c #FF2A58",
"'  c #FA3453",
"]  c #DC2F67",
"[  c #FF2F63",
"{  c #F83567",
"}  c #E5366C",
"|  c #B84658",
" . c #846942",
".. c #845268",
"X. c #B3426D",
"o. c #867D78",
"O. c #AD7772",
"+. c #C4405E",
"@. c #D74E5C",
"#. c #FF5152",
"$. c #D9496D",
"%. c #FF446A",
"&. c #FF4A76",
"*. c #FF5574",
"=. c #FE5A7B",
"-. c #FC547D",
";. c #E44670",
":. c #FF607F",
">. c #DC6D74",
",. c #7A845E",
"<. c #728E77",
"1. c #98865D",
"2. c #B38D53",
"3. c #918375",
"4. c #D5AF6B",
"5. c #FFAE7F",
"6. c #FDC55C",
"7. c #FECF6B",
"8. c #EFCB6F",
"9. c #D5E47C",
"0. c #1B228F",
"q. c #263D92",
"w. c #2C458F",
"e. c #36769F",
"r. c #3E6AA0",
"t. c #FF3F83",
"y. c #B7768A",
"u. c #AC7388",
"i. c #FF5B87",
"p. c #D6708C",
"a. c #FF638B",
"s. c #FF7D83",
"d. c #EB7695",
"f. c #FE7697",
"g. c #EB6E8F",
"h. c #FF73A8",
"j. c #54948C",
"k. c #4D8B84",
"l. c #639992",
"z. c #7A918C",
"x. c #6AA98E",
"c. c #4C8DA7",
"v. c #55AFB4",
"b. c #66B4B6",
"n. c #5BC2C3",
"m. c #6AC7C7",
"M. c #68D5C4",
"N. c #7BCCD3",
"B. c #76D7D4",
"V. c #78E2CE",
"C. c #7FF8EB",
"Z. c #838383",
"A. c #8A8D8C",
"S. c #829D97",
"D. c #B6858A",
"F. c #93A19E",
"G. c #B4A096",
"H. c #92B6B6",
"J. c #ACBBBC",
"K. c #ADAEAE",
"L. c #CF9F8D",
"P. c #FF8B8A",
"I. c #FA9997",
"U. c #EF9A9A",
"Y. c #C5A797",
"T. c #D0A392",
"R. c #FFA18F",
"E. c #F7A098",
"W. c #FA91AA",
"Q. c #C9A8A6",
"!. c #CEB6A9",
"~. c #D6B8AA",
"^. c #FFAAA5",
"/. c #FFABA8",
"(. c #FFB4A8",
"). c #F1B9A9",
"_. c #C39CAC",
"`. c #BDD5BC",
"'. c #81D3BA",
"]. c #FFE589",
"[. c #FECAB5",
"{. c #FFCCB8",
"}. c #F0CAB5",
"|. c #C1BEC4",
" X c #FFBAC2",
".X c #FEBDD1",
"XX c #B9CCCB",
"oX c #B7D9D7",
"OX c #92E2DA",
"+X c #A9EDDB",
"@X c #97FCE4",
"#X c #86FFFF",
"$X c #9FFFFF",
"%X c #A7FFF9",
"&X c #B6FFFF",
"*X c #C9C8CC",
"=X c #D0C7CC",
"-X c #C3D9D6",
";X c #D4D3D3",
":X c #D6D9DA",
">X c #D2DACE",
",X c #FFD3C2",
"<X c #FFDAC9",
"1X c #FFDAC4",
"2X c #F8C3D3",
"3X c #FFE2CD",
"4X c #FFE5D2",
"5X c #FBEADA",
"6X c #CAECEB",
"7X c #C7FCF7",
"8X c #DAFDFC",
"9X c #D1F2ED",
"0X c #EDEDED",
"qX c #E8E8E8",
"wX c #F9E2E9",
"eX c #FFFFEB",
"rX c #FFE8F2",
"tX c #ECFFFF",
"yX c #EEF4F3",
"uX c #F4F5F5",
"iX c #FEFFFF",
"pX c #FBFBF6",
"aX c #E7F2EF",
"sX c #D3DAE2",
/* pixels */
"                    O @ % @ + + + + @ % @ O                     ",
"                    x c q q i i i i q q c x                     ",
"            B e % w y.d.} @.4.9.9.4.@.} d.y.x X     B M         ",
"            Z.<.& ; p.h.i.*.5.].].5.*.t.h.p.N O     o.Z.        ",
"    M N ; S :XXXn # ^ ] } ] +.| | +.] } ] Q = @ = S :X;XD ; N M ",
"    S A.o.K.iXaXC 5 Q X.Q Q ~ ~ ~ ~ Q Q X.~ q w F J.iXuXF.S Z.Z.",
"M S J.qX:XaXtXwX$.;..X|.x - D. X XD.- x |.2X;.$.=X8XtX0X:X;X:X:X",
"B Z.:XiXiXiXqXW.%.f.iX8X& @ Y.eXeXY.@ & 8XiXf.%. XuXyXuXiXiXiXpX",
"B S ;XiXiXrXf.{ ' I.iX8X& O Y.eXeXY.O & 8XiXI.' %.W.wXiXiXiXuX0X",
"B Z.:XiXiXrX&.P #.R.5XXXB C ~.5X5X~.C B XX5XR.#.P &.wXiXiXiXiXuX",
"B A.0XiXiXrX-.` P.L.A A Q.,X<X<X<X<X,XQ.A A L.P.` -.rXiXiXiXiXiX",
"M S *XiXtX2X-.&./.L.= = Y.4X<X,X,X<X4XY.= = L.^.%.&..XpXuXqX0X0X",
"    S F.S.u.&.i./.T.; @ N 3.(.,X,X(.3.N @ ; T./.=.{ i.f.D.z.A.A.",
"    M N b V ) *.^.).o.b * ; O.U.U.O.; * b o.)./.:.` ( ) v b b M ",
"            5 Q U.1X1XG.b @ ; V V ; @ b G.1X{.^.=._ L ,         ",
"            . 5 >.(.4X{.o.M M M M M M o.{.3X(.s.&._ , .         ",
"            . , _ =.^.[.}.~.!.!.!.!.~.}.[.E.*.[ [ _ , .         ",
"            k ..;.a.I.[.3X5X4X3X3X4X5X3X[.U.=.&.a.p...k         ",
"        o w H.6X;X*X-X>X{.[.[.{.{.[.[.{.>XoX*X=XsX9X7XH.w o     ",
"        r 1.`.7X%X$X%X-XI.s.P.I.I.P.s.I.-X%X%X%X+X+X7X`.1.p     ",
"    $ f 8.7.2.3.V.#X%X;X=.` %.*.*.%.` =.=X%X#XV.,.E  .2.7.4.f $ ",
"    $ E 8.6.Y r <.V.@XXXg.{ ( / / ( { d.-X@XV.x.d 2 2 W 7.8.g > ",
"    - p E W U y d G b.N.oXQ.! K K ! _.oX@X'.,.d y 4 4 T W E u 6 ",
"    6 9 1 3 s U H a k.B.&X9Xy.! ! u.6X&XC.x.d J I T T t 3 1 7 7 ",
"    6 9 1 r s U H h k.N.tXiX:XJ.J.:XiXtXB.j.h H U T T s r 1 7 6 ",
"    6 u p a s U I g j.N.8XiX7X%X%X7XiX8XN.j.g I U T T s a p 9 7 ",
"    6 p a a a t I j l.m.OX+X@X@X@X@X+XOXm.l.g I U R a a a p 9 8 ",
"    6 8 p a a t I g l.n.M.M.m.b.b.m.M.M.n.l.g I U s a a a u 8 6 ",
"        7 p a t y f Z v.M.b.r.q.q.r.b.M.v.Z f y t s a a p 7     ",
"        : 7 p r r i m e.c.c.z l l z c.c.e.m i 3 r p p u 7 :     ",
"            8 0 1 w z q.w.w.        w.w.q.z w 1 < 9 9 8         ",
"            6 8 < ; z 0.0.l         l 0.0.z ; < < 7 8 6         "
};
