/* XPM */
static char *c5a13cdede3b4a2e987442b705364b4fhX7JOpJcQTa46HTZ[] = {
/* columns rows colors chars-per-pixel */
"32 32 241 2 ",
"   c None",
".  c #000002",
"X  c #020A0E",
"o  c #00120E",
"O  c #061916",
"+  c #17191D",
"@  c #0D0C15",
"#  c #261417",
"$  c #2B170F",
"%  c #0B221E",
"&  c #16251F",
"*  c #2F261B",
"=  c #351A26",
"-  c #1F2121",
";  c #142922",
":  c #122E2F",
">  c #282929",
",  c #382A28",
"<  c #393129",
"1  c #2A2F31",
"2  c #3B2F32",
"3  c #2B3334",
"4  c #393838",
"5  c #1C0F22",
"6  c #46331C",
"7  c #5A3B1B",
"8  c #47270C",
"9  c #793F13",
"0  c #6F3B0F",
"q  c #423324",
"w  c #4C3927",
"e  c #553D25",
"r  c #472A34",
"t  c #473738",
"y  c #532930",
"u  c #5E252A",
"i  c #314938",
"p  c #784417",
"a  c #6D451D",
"s  c #5C4228",
"d  c #49423E",
"f  c #5D483A",
"g  c #6D4924",
"h  c #6B4724",
"j  c #784D23",
"k  c #7C5226",
"l  c #765636",
"z  c #695031",
"x  c #71653D",
"c  c #5A400F",
"v  c #323D47",
"b  c #151874",
"n  c #1E247B",
"m  c #0D2F72",
"M  c #24327C",
"N  c #272E75",
"B  c #513D45",
"V  c #6A3F42",
"C  c #711A46",
"Z  c #134240",
"A  c #394644",
"S  c #2B4142",
"D  c #325A75",
"F  c #3B6578",
"G  c #1E4D7A",
"H  c #4C4C4C",
"J  c #444746",
"K  c #564A47",
"L  c #505454",
"P  c #50534E",
"I  c #655756",
"U  c #6C4F4B",
"Y  c #726456",
"T  c #66665D",
"R  c #4D6364",
"E  c #696C66",
"W  c #7D4C6C",
"Q  c #833D0A",
"!  c #BE0030",
"~  c #D20134",
"^  c #854E1B",
"/  c #884A14",
"(  c #905417",
")  c #804827",
"_  c #865221",
"`  c #8F6731",
"'  c #A67332",
"]  c #931E4D",
"[  c #87254B",
"{  c #9C2952",
"}  c #A72A58",
"|  c #BD2D58",
" . c #FB194D",
".. c #FF1A51",
"X. c #FF0C4A",
"o. c #CF2B4F",
"O. c #F9335C",
"+. c #FF2A5B",
"@. c #D43E68",
"#. c #FC3966",
"$. c #F02F61",
"%. c #855B59",
"&. c #B14A47",
"*. c #896A4B",
"=. c #8D576F",
"-. c #9C6371",
";. c #D25651",
":. c #E44D52",
">. c #DE665B",
",. c #FF476E",
"<. c #FE4876",
"1. c #FD547A",
"2. c #E54768",
"3. c #DA6964",
"4. c #FF6C69",
"5. c #FF6679",
"6. c #FF7B75",
"7. c #EA6F65",
"8. c #BA935B",
"9. c #D6AD52",
"0. c #EAB854",
"q. c #FF887D",
"w. c #E6B476",
"e. c #FFEC7C",
"r. c #D5DE76",
"t. c #0F2985",
"y. c #25358F",
"u. c #4E358D",
"i. c #2C4796",
"p. c #2A4E87",
"a. c #3B7697",
"s. c #316991",
"d. c #1C69A1",
"f. c #5F6E9D",
"g. c #BC7687",
"h. c #FF5882",
"j. c #C77287",
"k. c #FF6082",
"l. c #FF6B95",
"z. c #FE7899",
"x. c #E66084",
"c. c #3D97B0",
"v. c #398299",
"b. c #458797",
"n. c #569096",
"m. c #6D8E94",
"M. c #4799AA",
"N. c #4388A4",
"B. c #6D9AA4",
"V. c #55A2A4",
"C. c #4EA2AF",
"Z. c #6AB5B0",
"A. c #36C5BD",
"S. c #6BC4BA",
"D. c #73C9B7",
"F. c #57C4AF",
"G. c #37BFC9",
"H. c #3FE9D0",
"J. c #59D0C5",
"K. c #6ACAC4",
"L. c #75CFC4",
"P. c #68D9C5",
"I. c #7DDCCA",
"U. c #76D7C6",
"Y. c #71DDD3",
"T. c #7CE3CC",
"R. c #79E7D4",
"E. c #68E2CD",
"W. c #78F9E5",
"Q. c #67FFE2",
"!. c #54E3C8",
"~. c #8A8B8A",
"^. c #878988",
"/. c #979694",
"(. c #968491",
"). c #AD948C",
"_. c #96AFB1",
"`. c #B0A6A7",
"'. c #CE8592",
"]. c #E6839A",
"[. c #FC8A97",
"{. c #FB9289",
"}. c #D0A395",
"|. c #FBA79B",
" X c #ECA69D",
".X c #FF81A3",
"XX c #FF8AAB",
"oX c #F892AB",
"OX c #FE96B1",
"+X c #FF96B8",
"@X c #F58FAC",
"#X c #D8B8A8",
"$X c #D4B0AC",
"%X c #E5BAAB",
"&X c #FFB8A9",
"*X c #FFAFB0",
"=X c #DE88A6",
"-X c #84CAAF",
";X c #FED28E",
":X c #D7C4B2",
">X c #FFCDBD",
",X c #FCC6B4",
"<X c #FED5BC",
"1X c #ECC8B6",
"2X c #FFFFA4",
"3X c #FFF496",
"4X c #ABA9CE",
"5X c #FFA7C3",
"6X c #D3B9C5",
"7X c #82DDCB",
"8X c #84D6CF",
"9X c #96CEC2",
"0X c #ABCCC8",
"qX c #83E4CE",
"wX c #89ECD2",
"eX c #8CE1D5",
"rX c #9DE3D5",
"tX c #8AF0D7",
"yX c #91F2DE",
"uX c #90F4E2",
"iX c #CDC8C4",
"pX c #D8D8D7",
"aX c #C2C7DB",
"sX c #FFDECC",
"dX c #FED5C6",
"fX c #FFC5D3",
"gX c #F6D1CB",
"hX c #FFE3D1",
"jX c #FDE9D6",
"kX c #FFEBDA",
"lX c #EFE4D3",
"zX c #F8D3E1",
"xX c #CDFFFF",
"cX c #C3E9EA",
"vX c #EAEAEA",
"bX c #F8E9ED",
"nX c #FFFBE8",
"mX c #F8EEF6",
"MX c #E9FAF8",
"NX c #FFFEFE",
"BX c #FAF9F7",
/* pixels */
"                . 4 $XzX5XOXOXOXOXOX+X*X2Xr.i X O ; ; ;         ",
"                2 %.@X5XXXz.z.z.z.z.l.[.;Xw.f 5 = r r r         ",
"            o B g.XXl.h.h.h.1.<.,.#.#.,.5.5.{ C [ } } [ , &     ",
"            O K '..X2.o.o.o.O.#.,.1.k.1.$.o.o.| { ] { [ , &     ",
"            & 1 4 t r = + y o.4.|.dXmX6XB u :.:.u @ 5 #         ",
"            1 2 , * % % & s >.{.>XBXNXcXZ # 7.q.Y i A 4         ",
"        - > 3 U ;.&.4 4 &.4.|.>X<XnXNXcX3 - }.hX1X:X1X).> .     ",
"        - 3 S %.6.4.K 4 &.6.>XjXdXkXNXpXv , }.hXsXkXnXsX-.4     ",
"        - 1 v %.6.4.K : > Y %XjXsXhXnX1XL t 3.{.q.|.kXnXkX).d X ",
"        - 1 S U 3.3.%.L A E #XjXhXdX%X).J t &.:.:.>.}.gXhX}.J X ",
"        - 1 A H K %.'.%X#X:XdXhXjX%XY 3 1 1 t y y t d K I K     ",
"        + > 3 1 % J {.,XsXsX>X>XsX#XE A I Y T T E L + . . .     ",
"        O + % O o > >.{.&X,X&X&X&X1X:X#X%X,X,X<XjX$X4 .         ",
"        t B B 4 3 U >.6.|.#X%X X{.[.*XdXjXlXgXfXnX#Xt X         ",
"H A i I j.].].'.'.].[.@X_.S.U.`.1.+.,.].9XJ.f.u.    d J H H H H ",
"~.^.m.).OX+X.Xz.XXXX.X=XB.A.H.D.j.+...$.(.N.d.t.    /././.~.~.^.",
"vXvXMXzX+Xl.,.#.1.1.<.x.B.A.!.P.L.`.#.X...-.v.G.xXNXNXvXmXvXpXpX",
"NXNXNXNXfXXXl.1.O. . .@.m.J.eXuXQ.L.j.,.,.h.(._.mXNXNXNXNXNXNXNX",
"BXNXNXNXBXBXNXfX@.! ~ } n.L.MXNXyXJ.Z.0XbXfXk.O.1.+XNXNXNXNXNXNX",
"vXBXNXNXNXNXMXaX-.[ ] W n.8XMXNXrXP.!.W.xXBXz. .~ 2.hXNXlXiXiXiX",
"BXBXNXNXNXNXf.i.f.m.m.B.S.7XrXrX7XU.P.R.uXrX0X~.y ) ;X3X8.l U K ",
"pXpXpXvXmX4Xn m c.P.J.K.I.7XU.U.I.7XI.U.L.E.W.F.i c 9.0.( 8 $ $ ",
"^.^.^.f.f.y.M s.S.R.R.U.I.I.T.T.qXqX7XU.U.R.W.D.x 0 ( ` ^ 0 8 * ",
"P P K v b t.a.Z.T.tXwXqXqXI.L.S.S.L.I.qXqXR.W.-X` Q 0 9 ^ j e < ",
"    * 4 G a.K.wXwXwXwXwXtXU.V.b.b.V.U.tXwXtXuX-X*.Q 9 p _ j e < ",
"    8 w R n.K.R.U.K.K.U.I.Z.a.p.p.a.Z.I.U.U.Y.Z.x Q / _ _ j e q ",
", 6 7 a k Y n.c.c.c.M.M.C.N.i.y.y.i.b.V.V.M.M.n.l p p j k g e w ",
"w s h ^ / k R s.F F D D F D M b b M p.s.s.s.s.F f a a g g s w q ",
"w s g _ / ^ k l l f , > t t         M i.i.y.y.M t 7 s s s w     ",
"q w e g k _ / / / ^ k z 7 8         n n n t.t.N 2 6 6 q q q     ",
"    q s k _ ^ p p ' 0.9.l $                                     ",
"    , e k _ _ p 0 ' e.e.` #                                     "
};
