/* XPM */
static char *_d1d0279402d4d7baeb615e636e0010cFMHUXUERfRkhXlzJ[] = {
/* columns rows colors chars-per-pixel */
"32 32 223 2 ",
"   c None",
".  c #000102",
"X  c #020A0D",
"o  c #061716",
"O  c #17191C",
"+  c #0A0F14",
"@  c #220F1E",
"#  c #291816",
"$  c #0A241F",
"%  c #16251F",
"&  c #29221C",
"*  c #3A291E",
"=  c #1C0F22",
"-  c #351A26",
";  c #192522",
":  c #0E2D2F",
">  c #222222",
",  c #292929",
"<  c #392A26",
"1  c #3B3127",
"2  c #2D2E31",
"3  c #2A3434",
"4  c #383938",
"5  c #392F31",
"6  c #49321D",
"7  c #5B391C",
"8  c #572E07",
"9  c #673608",
"0  c #7B3D0A",
"q  c #653C1A",
"w  c #531F28",
"e  c #621525",
"r  c #483726",
"t  c #533B24",
"y  c #472A34",
"u  c #473437",
"i  c #522930",
"p  c #653A32",
"a  c #324D37",
"s  c #71441C",
"d  c #6C431D",
"f  c #5D4428",
"g  c #4B443A",
"h  c #574836",
"j  c #6B4825",
"k  c #764B21",
"l  c #765827",
"z  c #6A4C30",
"x  c #6E5537",
"c  c #735734",
"v  c #7A6A3F",
"b  c #2C3B46",
"n  c #020269",
"m  c #12146D",
"M  c #513C47",
"N  c #6D3E43",
"B  c #711A46",
"V  c #134240",
"C  c #364744",
"Z  c #2B4142",
"A  c #355D70",
"S  c #3E6173",
"D  c #474948",
"F  c #564948",
"G  c #475353",
"H  c #545A57",
"J  c #4D4D51",
"K  c #775655",
"L  c #66514D",
"P  c #416776",
"I  c #4D7076",
"U  c #676663",
"Y  c #757474",
"T  c #6C6E6C",
"R  c #715E68",
"E  c #BA003A",
"W  c #864914",
"Q  c #914D12",
"!  c #8D511A",
"~  c #805224",
"^  c #976533",
"/  c #AC722E",
"(  c #9A1E4E",
")  c #B7154B",
"_  c #87254B",
"`  c #972D55",
"'  c #AF2B58",
"]  c #983C62",
"[  c #CC184E",
"{  c #FF1850",
"}  c #CE2A50",
"|  c #ED2B5C",
" . c #FD2558",
".. c #F9355B",
"X. c #FD3865",
"o. c #F03062",
"O. c #D73D6A",
"+. c #855B59",
"@. c #B14A47",
"#. c #886657",
"$. c #927045",
"%. c #8E4A67",
"&. c #A16371",
"*. c #D25551",
"=. c #E5484E",
"-. c #DE665B",
";. c #C85C7A",
":. c #CF436F",
">. c #FD456D",
",. c #FC4673",
"<. c #FA5479",
"1. c #E45265",
"2. c #DB6964",
"3. c #E36C63",
"4. c #FF6C69",
"5. c #FF6679",
"6. c #FF7A75",
"7. c #FA746A",
"8. c #6C817D",
"9. c #FF887D",
"0. c #DFBE67",
"q. c #E5B86C",
"w. c #F3CB68",
"e. c #D5DE76",
"r. c #243987",
"t. c #3A3A84",
"y. c #2A4791",
"u. c #376A85",
"i. c #347A97",
"p. c #3154A8",
"a. c #497C87",
"s. c #557894",
"d. c #5C74AF",
"f. c #B36F84",
"g. c #FF5883",
"h. c #DD6B89",
"j. c #FF6484",
"k. c #FF6C94",
"l. c #FE7B9C",
"z. c #FC7298",
"x. c #258192",
"c. c #3C8BA6",
"v. c #3C9EBE",
"b. c #578E94",
"n. c #7B8083",
"m. c #5C9FB4",
"M. c #5092AF",
"N. c #50ABB7",
"B. c #7EB2AD",
"V. c #7DB6B3",
"C. c #69B2B1",
"Z. c #62BCC3",
"A. c #6BCAC5",
"S. c #65C5C4",
"D. c #75D7CB",
"F. c #75DACE",
"G. c #7AE4CC",
"H. c #7AEDD4",
"J. c #7BF6DA",
"K. c #7AF9DC",
"L. c #64E2D3",
"P. c #868584",
"I. c #AF9589",
"U. c #B99FA4",
"Y. c #86BFB7",
"T. c #B3B3B7",
"R. c #A7B9B3",
"E. c #CB8D90",
"W. c #FF8A9A",
"Q. c #FC9895",
"!. c #F99285",
"~. c #D4A193",
"^. c #CCA498",
"/. c #FFA99C",
"(. c #DC87A4",
"). c #FD86A5",
"_. c #F892A8",
"`. c #FE95B2",
"'. c #FE98B2",
"]. c #FF8CB6",
"[. c #D8B8A8",
"{. c #D7ADAB",
"}. c #E6B9AB",
"|. c #FFBBA9",
" X c #FFB9B4",
".X c #FFA5BE",
"XX c #9DC7BD",
"oX c #FFCE97",
"OX c #D9C7B4",
"+X c #CAC4B0",
"@X c #E6C7B7",
"#X c #FFC7B8",
"$X c #FFD4BC",
"%X c #ECD1BE",
"&X c #FFFFA4",
"*X c #FFA7C3",
"=X c #F7BCD1",
"-X c #D3B9C5",
";X c #8ACFCA",
":X c #BFC8C9",
">X c #82E8D5",
",X c #83F4D7",
"<X c #98ECD5",
"1X c #80E3E1",
"2X c #D4D6D7",
"3X c #CFD4D2",
"4X c #FFD6C3",
"5X c #FFDDCB",
"6X c #FCD5C8",
"7X c #F3CFC8",
"8X c #FFE4CF",
"9X c #FEE3D2",
"0X c #FFE9D5",
"qX c #FFEBDA",
"wX c #FFD4E2",
"eX c #D3EDEC",
"rX c #FDFBEC",
"tX c #FFF1E8",
"yX c #FFEBF2",
"uX c #FEFDF4",
"iX c #FFFEFE",
"pX c #F8F6F8",
"aX c #ECF4F3",
/* pixels */
"                . 4 {.wX*X`.`.`.'.`.]. X&Xe.a X o ; ; ;         ",
"                5 +._.*X].l.l.l.l.z.k.W.oXq.h = - y y y         ",
"            X M f.).k.g.g.g.<.,.,.X.X.>.5.5.` B _ ' ' _ < %     ",
"            o F E.).1.} } } ..X.>.<.j.<.o.} } ' ( ( ( _ < %     ",
"            % 2 4 u i - O w } 4.Q.6XyX-XM e =.=.w + @ @         ",
"            2 5 < & $ $ % p -.!.$XuXiXeXV # 3.9.K a C 4         ",
"        ; , 3 L *.@.4 4 @.7./.$X4XrXiXeX3 & ~.8X%XOX@XI., .     ",
"        ; 3 Z +.6.4.F 4 @.6.#X0X4XqXiX2XC < ^.9X5XqXuX5X&.4     ",
"        > 3 b +.6.4.F : , K }.0X5X9XrX@XG u 2.!.9./.0XrXqXU.g X ",
"        > 3 Z K 2.3.#.G C T [.9X9X4X}.I.D u @.=.=.*.~.7X9X^.D X ",
"        > 4 D D F +.E.}.[.OX7X9X0X}.R 3 3 2 u i i u g F U F     ",
"        > 2 4 3 $ D !.#X8X0X4X4X5X}.U C H U H H H D O . X X     ",
"            > O X , *.!.#X4X#X#X|.|.[.+XOXOX[.[.@XI.5 .         ",
"            O , 2 N -.6.Q.Q.Q.Q.E.{.#X4X X#X9XrXuX7XF .         ",
"            3 L f.)._.W.<.>.>.;.a.b.h.<...j.wXiXiXtXY ,         ",
"            8.U..X*X`.z.>. . .:.s.s.O. .X.l.yXiXiXaXT.Y         ",
"        2 T 2XiX=X).g.>.X.X...<.(.(.X.,.*XpXiXiXpXpXiX2XP.J     ",
"        T :XiXiX=Xh.X. . .| | X.k.g. .<.yXiXiXiXuXuXiX2XP.J     ",
"    J n.2XiXiXaXC.R | { [ ) ) [ } [ E :.wXiXiXiXiXrXT.T         ",
"    D P.2XtX9XR.x.u.;.<.:.%.%.%.] ` ` f.3XeXeXeXeXT.U 5         ",
"    r L #.$.^ x A i.V.XXXXV.V.V.Y.B.B.Y.;X<X<X;Xd.t.            ",
"    * 6 9 9 8 g I N.L.K.K.J.J.J.J.J.K.H.D.G.,XS.y.n             ",
"    < 7 0 d G a.C.G.H.H.J.,X,X,X,X,X,XH.F.G.,XD.p.n             ",
"    r q 0 z u.v.F.,X>XD.A.A.A.A.A.A.A.D.H.>XF.m.y.m             ",
"1 t j W 0 z u.v.S.D.D.Z.M.c.c.c.c.c.c.N.,X1XM.r.                ",
"r f k ^ / $.I i.M.m.b.b.P A S P P S S a.C.m.r.n                 ",
"r t s / w.w.v b r.y.G h f z z c c c c x g 3                     ",
"1 6 7 / w.w.l @ m m < 8 9 W Q Q Q Q Q ! ~ j                     ",
"    r c $.c         * 7 s W ! ! ! W W / w.0.c #                 ",
"    r 1 & #         6 r f j k k k d q ^ w.0.x #                 ",
"                        r t t t t r r f c c                     ",
"                        r r r 1 1 1 r 1 * #                     "
};
