/* XPM */
static char *_237225131854331af224323b2974771Kn3099pte7BhlwWY[] = {
/* columns rows colors chars-per-pixel */
"32 32 234 2 ",
"   c None",
".  c #010102",
"X  c #020A0D",
"o  c #00050B",
"O  c #031614",
"+  c #161318",
"@  c #0B0B14",
"#  c #250C1B",
"$  c #241619",
"%  c #290010",
"&  c #0A241F",
"*  c #16251F",
"=  c #342418",
"-  c #1B192B",
";  c #321925",
":  c #182523",
">  c #0E2E2F",
",  c #272727",
"<  c #38282A",
"1  c #3C3127",
"2  c #293334",
"3  c #393838",
"4  c #342F31",
"5  c #4E3019",
"6  c #7B3B0C",
"7  c #6C3C15",
"8  c #722E03",
"9  c #481929",
"0  c #511224",
"q  c #6D122B",
"w  c #473524",
"e  c #563C24",
"r  c #472834",
"t  c #463739",
"y  c #523133",
"u  c #552230",
"i  c #653A32",
"p  c #324D37",
"a  c #7A4618",
"s  c #6B411D",
"d  c #4A433C",
"f  c #5B4A36",
"g  c #694727",
"h  c #794C21",
"j  c #695536",
"k  c #725E3D",
"l  c #674C31",
"z  c #7C653D",
"x  c #293F40",
"c  c #080768",
"v  c #2C3075",
"b  c #463C40",
"n  c #573D4E",
"m  c #703E43",
"M  c #413C7A",
"N  c #711A46",
"B  c #134240",
"V  c #354644",
"C  c #2B4142",
"Z  c #325271",
"A  c #434442",
"S  c #4A4B4A",
"D  c #564948",
"F  c #4C5453",
"G  c #535452",
"H  c #765957",
"J  c #664F4D",
"K  c #52665F",
"L  c #73625A",
"P  c #446979",
"I  c #44727C",
"U  c #536962",
"Y  c #686966",
"T  c #67716C",
"R  c #757674",
"E  c #9B1C3E",
"W  c #844A18",
"Q  c #8D541E",
"!  c #8B4C17",
"~  c #845222",
"^  c #895A29",
"/  c #804F21",
"(  c #A3702D",
")  c #A56C27",
"_  c #8B6A3A",
"`  c #9A1E4E",
"'  c #BF1C44",
"]  c #87254B",
"[  c #932E50",
"{  c #AE2A54",
"}  c #DE1F4D",
"|  c #FF0347",
" . c #FF1854",
".. c #D22756",
"X. c #CD2C4A",
"o. c #FF2A5C",
"O. c #FF2356",
"+. c #EC2F5A",
"@. c #FF2961",
"#. c #E83564",
"$. c #FE3463",
"%. c #FE3B68",
"&. c #FF3D73",
"*. c #855B59",
"=. c #8C475A",
"-. c #B14A47",
";. c #8D6952",
":. c #8D5163",
">. c #8F7D75",
",. c #D0524F",
"<. c #E5494F",
"1. c #DA675C",
"2. c #D25677",
"3. c #FC466D",
"4. c #FD4875",
"5. c #E65577",
"6. c #FC537A",
"7. c #E74A6F",
"8. c #DB6964",
"9. c #FF6C69",
"0. c #FB6479",
"q. c #FF7772",
"w. c #EA6F65",
"e. c #988450",
"r. c #FF887D",
"t. c #CCB576",
"y. c #E6B476",
"u. c #FFCA5A",
"i. c #D9CF77",
"p. c #F0C862",
"a. c #27308F",
"s. c #2C4A97",
"d. c #3D799F",
"f. c #3064A7",
"g. c #636781",
"h. c #4164A4",
"j. c #4E5F90",
"k. c #8A7582",
"l. c #B87386",
"z. c #FF5582",
"x. c #C6798D",
"c. c #D66B86",
"v. c #FF6388",
"b. c #FF6D95",
"n. c #FE7C9C",
"m. c #FE7398",
"M. c #E67186",
"N. c #398AA3",
"B. c #359CA4",
"V. c #588E94",
"C. c #609AA1",
"Z. c #53ABB2",
"A. c #6DB7B0",
"S. c #6D9D9B",
"D. c #63D2BE",
"F. c #73CCB6",
"G. c #66BAC2",
"H. c #75BFC0",
"J. c #5ADBC8",
"K. c #45D3C8",
"L. c #6BC7C4",
"P. c #78CCC3",
"I. c #69D5C6",
"U. c #74D4C4",
"Y. c #76D7C8",
"T. c #7CD5D4",
"R. c #5DE4CB",
"E. c #7DE3CC",
"W. c #65EBD5",
"Q. c #74F1D8",
"!. c #999F9D",
"~. c #92838E",
"^. c #B0958A",
"/. c #98A19E",
"(. c #B6A399",
"). c #94B9B3",
"_. c #BAB9B6",
"`. c #C98A8F",
"'. c #FF8A88",
"]. c #FC9F9B",
"[. c #F7928F",
"{. c #D4A193",
"}. c #CCA498",
"|. c #FCA89D",
" X c #FF86A7",
".X c #FE96B1",
"XX c #FE98B2",
"oX c #F88EAF",
"OX c #D7B2A9",
"+X c #E6BAAB",
"@X c #F9B3AD",
"#X c #8DC8B8",
"$X c #F5CE8D",
"%X c #D8C7B4",
"&X c #FEC4B1",
"*X c #FFCCBA",
"=X c #EDCDBB",
"-X c #FFFFA4",
";X c #8CBDC0",
":X c #B2ACC4",
">X c #FFA9C2",
",X c #FFB6CC",
"<X c #D3B9C5",
"1X c #86DCCC",
"2X c #90D7CC",
"3X c #A8D4C9",
"4X c #87EBD6",
"5X c #9AE8D8",
"6X c #84E3CD",
"7X c #8EFBE8",
"8X c #ADF1E8",
"9X c #AFC6E1",
"0X c #D0D6D9",
"qX c #FFC8C2",
"wX c #E9D4C1",
"eX c #FFD6C3",
"rX c #FEDCCB",
"tX c #FDD4C7",
"yX c #F4D6DE",
"uX c #FFE3CE",
"iX c #FFE3D1",
"pX c #FFE9D6",
"aX c #FFEBDA",
"sX c #FFC9E0",
"dX c #D7FEFC",
"fX c #C5EFEE",
"gX c #F7E8E8",
"hX c #FFFBEA",
"jX c #E9FAF8",
"kX c #FFFFF4",
"lX c #F4FFFE",
"zX c #FFFFFF",
"xX c #FDF3F7",
"cX c #FFECF7",
/* pixels */
"                . 3 OXsX>X.X.X.X.X.XoX@X-Xi.p X O : : *         ",
"                4 *.oX>XoXn.n.n.n.m.b.[.$Xy.f - ; r y r         ",
"            O b l. Xb.z.z.z.6.4.3.%.$.3.0.0.[ N ] { { ] < *     ",
"            O D `. X7.X.X...+.%.3.6.v.6.#.....{ ` ` ` ] < *     ",
"            * 4 3 t r ; + u X.9.].tXxX<Xn q <.<.u + # #         ",
"            4 4 < , & & * i 1.[.*XkXzXfXB $ w.r.L p V 3         ",
"        : , 2 J ,.-.3 3 -.9.|.*X*XhXzXfX2 $ {.uX=X%X=X^., .     ",
"        : 2 C *.q.9.D 3 -.q.*XpXeXaXzX0XV < {.iXrXaXkXrX>.4     ",
"        , 2 x *.q.9.J > , H +XpXrXuXhX=XF t 8.'.r.|.aXkXaX(.d X ",
"        , 2 V H 1.8.*.F V T +XpXiXeX+X^.V t -.<.<.1.{.wXiX}.A X ",
"        , 3 A S D *.`.+XOX%XtXiXpX+XL 2 2 2 t y y y d D L D     ",
"        , 4 3 2 & A [.*XrXrXeXeXuX+XH t G Y K U T F : o X X     ",
"            , : O , 1.[.@X&X&X&X&X@X+XOX%X%X%XwXpXOXA .         ",
"            + : 2 m <.q.|.+X].'.'.|.tXpXtXqXqXtXtX(.d .         ",
"            . r l.n.3.5.#X#XM.$.$.M.3X3X[.6.v.0.=.3             ",
"            9 :. X X&.2.I.U.5.| | 5.U.U.5. .@.+.q %             ",
"        . 9 l. Xb.4.@.c.Y.P.5.| | 5.P.P.5. .o.%.+.{ 9 o         ",
"        9 =.n. X4.O.O.5.F.U.x.3.3.x.P.U.x.3.%.&.&.$.E 0         ",
"    % u 2.b.4.%.%.o. .6.).R.#X).).#XI.I.A.~.7.$.o.o.O.' 0 #     ",
"    # =.@X,Xn.3.o.o.#.c.3X7XQ.W.W.Q.5X4XK.C.7.o.6.b.m.v.] ;     ",
"    t ~.gXzXzX>X$.} k.;XjXlX5XJ.J.5XlXjXI.V...$.,XzXzXyXk.b     ",
"    G !.lXzXzXxXn.2.C.J.dXlX5XD.D.5XlXjXU.S.5.n.xXzXzXlX/.F     ",
"    G !.jXzXzXzXxXyXA.Z.1X5X1XY.Y.1X5X2XI.2XyXcXzXzXzXjX!.G     ",
"    S R _.xXzXzXzXdXH.Z.D.Y.Y.1X6XE.U.I.I.5XdXzXzXzXgX_.R S     ",
"        Y _.kXzX8XL.Z.A.U.E.6X6X4X4XE.E.Y.E.4X8XzXgX(.Y         ",
"        3 Y :X9XZ.B.Z.Z.L.Y.E.Y.L.G.L.U.Y.Y.I.4XdX0Xg.-         ",
"            a.s.d.N.N.N.N.Z.I.G.h.s.d.Z.G.I.W.7X7XT.s.c         ",
"            v j.P I P P Z I C.V.v c Z I V.S.A.F.F.A.j.M         ",
"        + j t.i.;.g l j l f f A     4 d j k z z k e.$Xt.d o     ",
"        = _ p.u.) 6 W W a 7 5 =     5 5 7 6 6 6 8 ) u.p.k $     ",
"    1 w g ^ ( ( Q W W W a s e 5     5 e s a a W a Q ( ( ^ g w 1 ",
"    1 l ^ Q a 7 a ~ ~ / h g e w     1 e g h h ~ ~ a 7 a Q ~ g w "
};
