/* XPM */
static char *_1851fd3a6b64657acae6da58b346e13[] = {
/* columns rows colors chars-per-pixel */
"32 32 243 2 ",
"   c None",
".  c #000002",
"X  c #020A0F",
"o  c #00120E",
"O  c #061916",
"+  c #17191D",
"@  c #0D0C15",
"#  c #291710",
"$  c #0B221E",
"%  c #16261F",
"&  c #2F261B",
"*  c #311624",
"=  c #1F2121",
"-  c #132721",
";  c #122E2F",
":  c #272828",
">  c #382A28",
",  c #393129",
"<  c #2A2F31",
"1  c #2B3334",
"2  c #393838",
"3  c #3C2F33",
"4  c #1C0F22",
"5  c #46341D",
"6  c #5A3B1B",
"7  c #47270D",
"8  c #793F13",
"9  c #6F3B0F",
"0  c #433324",
"q  c #4D3927",
"w  c #553D25",
"e  c #472A34",
"r  c #473738",
"t  c #532930",
"y  c #5E252A",
"u  c #314938",
"i  c #784417",
"p  c #6D451D",
"a  c #5C4228",
"s  c #4A413D",
"d  c #5D483A",
"f  c #6D4924",
"g  c #6B4724",
"h  c #774D23",
"j  c #7E5224",
"k  c #75512D",
"l  c #765636",
"z  c #695031",
"x  c #71653D",
"c  c #5A400F",
"v  c #323D47",
"b  c #161975",
"n  c #1E247B",
"m  c #0D2F72",
"M  c #24337D",
"N  c #272E75",
"B  c #513D45",
"V  c #6A3F42",
"C  c #711A46",
"Z  c #134240",
"A  c #394644",
"S  c #2B4142",
"D  c #325A75",
"F  c #3B6578",
"G  c #1E4D7A",
"H  c #4C4C4C",
"J  c #454745",
"K  c #564A47",
"L  c #505252",
"P  c #50534E",
"I  c #665756",
"U  c #6C4F4B",
"Y  c #726456",
"T  c #67675E",
"R  c #4D6364",
"E  c #696C66",
"W  c #7D4C6C",
"Q  c #833D0A",
"!  c #BE0030",
"~  c #D20134",
"^  c #854E1C",
"/  c #884A14",
"(  c #905417",
")  c #845221",
"_  c #885321",
"`  c #80412D",
"'  c #8F6731",
"]  c #A67332",
"[  c #931E4D",
"{  c #87254B",
"}  c #9C2952",
"|  c #A72A58",
" . c #BD2D58",
".. c #FB194D",
"X. c #FF1A51",
"o. c #FF0C4A",
"O. c #CF2B4F",
"+. c #F9335C",
"@. c #FF2A5B",
"#. c #D43E68",
"$. c #FC3966",
"%. c #F02F61",
"&. c #855B59",
"*. c #B14A47",
"=. c #896A4B",
"-. c #8D576F",
";. c #9C6371",
":. c #D25651",
">. c #E44D52",
",. c #DE665B",
"<. c #FF476E",
"1. c #FE4876",
"2. c #FD547A",
"3. c #E64868",
"4. c #DA6964",
"5. c #FF6C69",
"6. c #FF6679",
"7. c #FF7B76",
"8. c #EA6F65",
"9. c #BA935B",
"0. c #D6AD52",
"q. c #EAB854",
"w. c #FF887D",
"e. c #E6B476",
"r. c #FFEC7C",
"t. c #D5DE76",
"y. c #0F2A85",
"u. c #25358F",
"i. c #4F368E",
"p. c #2C4796",
"a. c #2A4E87",
"s. c #3B7697",
"d. c #316991",
"f. c #1C69A1",
"g. c #5F6F9D",
"h. c #BC7687",
"j. c #FF5882",
"k. c #C77387",
"l. c #FF6182",
"z. c #FF6C95",
"x. c #FE7899",
"c. c #E66084",
"v. c #3D97B0",
"b. c #398299",
"n. c #458797",
"m. c #569096",
"M. c #6D8E94",
"N. c #4899AA",
"B. c #4388A4",
"V. c #6D9AA4",
"C. c #55A2A4",
"Z. c #4FA2AF",
"A. c #6AB5B0",
"S. c #36C5BD",
"D. c #6BC4BA",
"F. c #73C9B7",
"G. c #57C4AF",
"H. c #3BD5CD",
"J. c #5ED4C2",
"K. c #56CDC6",
"L. c #6ACAC4",
"P. c #75CFC4",
"I. c #68D9C5",
"U. c #7EDCC9",
"Y. c #76D7C6",
"T. c #76DED2",
"R. c #7CE3CC",
"E. c #79E7D4",
"W. c #68E2CD",
"Q. c #78F9E5",
"!. c #67FFE2",
"~. c #54E3C8",
"^. c #8A8B8A",
"/. c #878988",
"(. c #979694",
"). c #968491",
"_. c #AD948C",
"`. c #96AFB1",
"'. c #B0A6A7",
"]. c #CE8592",
"[. c #E6839A",
"{. c #FC8A97",
"}. c #FB9289",
"|. c #D0A395",
" X c #FBA79C",
".X c #ECA69D",
"XX c #FF81A3",
"oX c #FF8AAB",
"OX c #F892AB",
"+X c #FE96B1",
"@X c #FF96B9",
"#X c #F58FAC",
"$X c #D9B8A9",
"%X c #D4B0AC",
"&X c #E5BAAB",
"*X c #FFB8A9",
"=X c #FFAFB0",
"-X c #DE88A6",
";X c #84CAAF",
":X c #FED28E",
">X c #D7C4B2",
",X c #FFCDBD",
"<X c #FCC6B4",
"1X c #FED5BC",
"2X c #EDC8B6",
"3X c #FFFFA4",
"4X c #FFF496",
"5X c #ABA9CE",
"6X c #FFA7C3",
"7X c #D3B9C5",
"8X c #82DDCB",
"9X c #84D6CF",
"0X c #96CEC2",
"qX c #ABCCC8",
"wX c #83E4CE",
"eX c #89ECD2",
"rX c #8CE1D5",
"tX c #9DE3D5",
"yX c #8AF0D7",
"uX c #91F2DE",
"iX c #90F4E2",
"pX c #CDC8C4",
"aX c #D6D6D5",
"sX c #DBDBDC",
"dX c #C2C7DB",
"fX c #FFDECC",
"gX c #FED5C6",
"hX c #FFC5D4",
"jX c #F6D1CB",
"kX c #FFE3D1",
"lX c #FDE9D6",
"zX c #FFECDA",
"xX c #EFE4D3",
"cX c #F8D3E1",
"vX c #CDFFFF",
"bX c #C3E9EA",
"nX c #EAEAEB",
"mX c #F8E9ED",
"MX c #FFFBE8",
"NX c #F9EEF7",
"BX c #E9FAF8",
"VX c #FFFEFE",
"CX c #FAF9F7",
/* pixels */
"        - - - O X u t.3X=X@X+X+X+X+X+X6XcX%X2 .                 ",
"        e e e * 4 d e.:X{.z.x.x.x.x.x.oX6X#X&.3                 ",
"    - > { | | { C } 6.6.<.$.$.1.1.2.j.j.j.z.oXh.B o             ",
"    - > { } [ }  .O.O.%.2.l.2.<.$.+.O.O.O.3.XX].K O             ",
"        * 4 @ y >.>.y B 7XNXjX X5.O.t + * e r 2 < =             ",
"        2 A u Y w.8.# Z bXVXCX1X}.,.a % $ $ & > , <             ",
"    . : _.2X>X2XfX|.= 1 bXVXMXgX,X X5.*.2 2 *.:.U 1 : =         ",
"    2 ;.fXCXzXfXkX|.> A aXVXzXgXlX,X7.*.2 K 5.7.&.S 1 =         ",
"X s |.zXMXzX Xw.}.4.r L 2XMXkXfXlX&XY : ; K 5.7.&.v < :         ",
"X J |.kX2X|.:.>.>.*.r J _.&XgXkXlX$XE A L &.4.4.U S < =         ",
"    K I K s r t t r 1 < 1 T &XlXkXgX>X$X&X].&.K H A < :         ",
"    . . . + L E T T Y I A E $XfXgX,XfXfX<X}.J $ ; 1 : +         ",
"        . 2 %XlX1X<X<X&X$X>X2X*X*X*X<X*X}.,.: o O + + O         ",
"        X s $XMXhXjXxXlXgX=X{.}..X&X$X.X7.,.V 1 2 B B r         ",
"H H L H J J     i.g.K.0X{.<.@.2.'.Y.D.`.#X{.[.].].[.[.k.I u A H ",
"^.^.^.(.(.(.    y.f.B.).$.X.@.k.F.H.S.V.-XXXoXoXXXXX@X+X_.M./.^.",
"aXsXnXNXnXVXVXvXS.b.;.X.o.$.'.P.W.~.S.V.c.1.2.2.$.<.z.@XcXBXnXnX",
"VXVXVXVXVXVXVXNX`.).j.1.<.k.Y.!.iXrXK.M.#.....$.2.z.oXhXVXVXVXVX",
"VXVXVXVXVXVX@X2.+.l.hXmXqXA.I.uXVXBXP.m.| ~ ! #.hXVXCXCXVXVXVXCX",
"pXpXpXxXVXkX3.~ ..x.CXvXQ.~.I.tXVXBX9Xm.W [ [ ;.dXBXVXVXVXVXCXnX",
"K U l 9.4X:X` t /.qXuXiXE.I.Y.8XtXtX8XD.V.M.M.g.a.g.VXVXVXVXCXCX",
"# # 7 ( q.0.c u G.Q.W.L.Y.U.8XU.Y.Y.U.U.L.J.I.v.m n 5XNXnXaXaXsX",
"& 7 9 ^ ' ( 9 x F.Q.E.Y.Y.8XwXwXR.R.U.U.Y.E.E.D.d.M u.g.g././.^.",
", w h ^ 8 9 Q =.;XQ.E.wXwXU.P.D.D.P.U.wXwXeXyXU.A.s.y.b v K P L ",
", w h _ i 8 Q =.;XiXyXeXyXY.C.n.n.C.Y.yXeXeXeXeXeXL.s.G 2 7     ",
"0 w h _ ) / / x A.T.Y.Y.U.A.s.a.a.s.A.T.Y.L.L.Y.E.L.m.R q 7     ",
"q w f j h i i l m.N.N.C.C.n.p.u.u.p.B.Z.N.N.v.v.v.m.Y j p 6 5 , ",
"0 q a f f p p d F d.d.d.d.a.M b b M D F D D F F d.R j / ^ g a q ",
"    q a a w 6 r M u.u.p.p.M         r r : > d l l k ^ / ) g a q ",
"    0 0 0 5 5 3 N y.y.n n n         7 6 z j ^ / / / ^ j f w q 0 ",
"                                    # l 0.q.] i i ^ _ j a 0     ",
"                                    # ' r.r.] 9 i ) _ j w >     "
};
