/* XPM */
static char *a15d30fee27e4125ab914451b36524f6[] = {
/* columns rows colors chars-per-pixel */
"32 32 223 2 ",
"   c None",
".  c #000102",
"X  c #020A0E",
"o  c #061716",
"O  c #18191D",
"+  c #0A0F14",
"@  c #281916",
"#  c #210E1E",
"$  c #0A241F",
"%  c #16261F",
"&  c #29231C",
"*  c #3A2A1E",
"=  c #1C0F22",
"-  c #311624",
";  c #182521",
":  c #0E2D2F",
">  c #222222",
",  c #292929",
"<  c #392A26",
"1  c #3A3128",
"2  c #2D2E31",
"3  c #293435",
"4  c #383737",
"5  c #49321D",
"6  c #5B391C",
"7  c #572E07",
"8  c #673608",
"9  c #7B3D0A",
"0  c #653C1A",
"q  c #531F28",
"w  c #621525",
"e  c #423425",
"r  c #4B3826",
"t  c #533B24",
"y  c #472A34",
"u  c #473437",
"i  c #522930",
"p  c #653A32",
"a  c #324D37",
"s  c #71441C",
"d  c #6C431D",
"f  c #5E4428",
"g  c #4B4538",
"h  c #574837",
"j  c #6B4826",
"k  c #764B21",
"l  c #765827",
"z  c #6A4C30",
"x  c #6E5537",
"c  c #735734",
"v  c #7A6A3F",
"b  c #2C3B46",
"n  c #03036A",
"m  c #12146D",
"M  c #523C48",
"N  c #6D3E43",
"B  c #711A46",
"V  c #134240",
"C  c #364744",
"Z  c #2B4142",
"A  c #355D70",
"S  c #3E6173",
"D  c #484947",
"F  c #564A48",
"G  c #475353",
"H  c #545A57",
"J  c #4D4D51",
"K  c #775655",
"L  c #66514D",
"P  c #416776",
"I  c #4D7076",
"U  c #676663",
"Y  c #767474",
"T  c #6D6E6C",
"R  c #715E68",
"E  c #BA003A",
"W  c #864A14",
"Q  c #914D12",
"!  c #8D511A",
"~  c #805224",
"^  c #986533",
"/  c #AC722E",
"(  c #9A1E4E",
")  c #B7154B",
"_  c #87254B",
"`  c #972D55",
"'  c #AF2B58",
"]  c #983C62",
"[  c #CC184E",
"{  c #FF1850",
"}  c #CE2A50",
"|  c #ED2B5C",
" . c #FD2558",
".. c #F9355B",
"X. c #FD3865",
"o. c #F03062",
"O. c #D73D6A",
"+. c #855B59",
"@. c #B14A47",
"#. c #886657",
"$. c #927045",
"%. c #8E4A67",
"&. c #A16371",
"*. c #D35551",
"=. c #E5484E",
"-. c #DE665B",
";. c #C85C7A",
":. c #CF436F",
">. c #FD456D",
",. c #FC4673",
"<. c #FA5479",
"1. c #E55266",
"2. c #DC6964",
"3. c #E36C63",
"4. c #FF6C69",
"5. c #FF6679",
"6. c #FF7A75",
"7. c #FA746A",
"8. c #6C817E",
"9. c #FF887D",
"0. c #DFBE67",
"q. c #E5B86C",
"w. c #F3CB68",
"e. c #D5DE76",
"r. c #243A87",
"t. c #3A3A84",
"y. c #2A4791",
"u. c #376A85",
"i. c #347A97",
"p. c #3154A8",
"a. c #497C87",
"s. c #557894",
"d. c #5C74AF",
"f. c #B36F84",
"g. c #FF5883",
"h. c #DD6B89",
"j. c #FF6484",
"k. c #FF6C94",
"l. c #FE7B9C",
"z. c #FC7298",
"x. c #258192",
"c. c #3C8BA6",
"v. c #3C9EBE",
"b. c #578E94",
"n. c #7B8184",
"m. c #5C9FB4",
"M. c #5092AF",
"N. c #50ABB7",
"B. c #7EB2AD",
"V. c #7DB6B3",
"C. c #69B2B1",
"Z. c #62BCC3",
"A. c #6BCAC5",
"S. c #65C5C4",
"D. c #75D7CB",
"F. c #75DACE",
"G. c #7AE5CC",
"H. c #7AEDD4",
"J. c #7BF6DA",
"K. c #7AF9DC",
"L. c #64E2D3",
"P. c #868584",
"I. c #AF9589",
"U. c #B99FA4",
"Y. c #86BFB7",
"T. c #B3B3B7",
"R. c #A8BAB4",
"E. c #CB8D90",
"W. c #FF8A9A",
"Q. c #FC9895",
"!. c #F99285",
"~. c #D5A193",
"^. c #CCA498",
"/. c #FFAA9C",
"(. c #DC87A4",
"). c #FD86A5",
"_. c #F892A8",
"`. c #FE95B2",
"'. c #FE98B2",
"]. c #FF8CB6",
"[. c #D8B8A8",
"{. c #D7ADAB",
"}. c #E6B9AB",
"|. c #FFBBA9",
" X c #FFB9B4",
".X c #FFA5BE",
"XX c #9DC7BD",
"oX c #FFCE97",
"OX c #D9C7B4",
"+X c #CAC4B0",
"@X c #E6C7B7",
"#X c #FFC7B8",
"$X c #FFD4BC",
"%X c #ECD1BE",
"&X c #FFFFA4",
"*X c #FFA7C3",
"=X c #F8BCD2",
"-X c #D3B9C5",
";X c #8ACFCA",
":X c #BFC8C9",
">X c #82E8D5",
",X c #83F4D6",
"<X c #98ECD5",
"1X c #81ECE1",
"2X c #D4D6D7",
"3X c #CFD4D2",
"4X c #FFD6C3",
"5X c #FFDDCB",
"6X c #FCD5C8",
"7X c #F3CFC8",
"8X c #FFE4CF",
"9X c #FFE3D2",
"0X c #FFE9D5",
"qX c #FFECDA",
"wX c #FFD4E2",
"eX c #D3EDEC",
"rX c #FDFBEC",
"tX c #FFF1E8",
"yX c #FFEBF2",
"uX c #FEFEF4",
"iX c #FFFFFE",
"pX c #F8F6F8",
"aX c #EDF4F3",
/* pixels */
"        ; ; ; o X a e.&X X].`.'.'.'.'.*XwX{.4 .                 ",
"        y y y - = h q.oXW.k.z.l.l.l.).].*X_.+.4                 ",
"    ; < _ ' ' _ B ` 5.5.>.X.X.,.,.<.g.g.g.k.).f.M X             ",
"    % < _ ( ( ( ' } } O.<.j.<.>.X...} } } 1.).E.F o             ",
"        # # + q =.=.w M -XyX6XQ.4.} q O - y u 4 2 ;             ",
"        4 C a K 9.3.@ V eXiXuX$X!.-.p ; $ $ & < 2 2             ",
"    . , I.@XOX%X8X~.& 3 eXiXrX4X$X/.7.@.4 4 @.*.L 3 , ;         ",
"    4 &.8XuXqX8X9X^.< C 2XiXqX4X0X#X6.@.4 F 4.6.+.Z 3 ;         ",
"X g U.qXrXqX/.9.!.2.u G @XrX9X5X0X}.K , : F 4.7.+.b 3 >         ",
"X D ^.9X%X~.-.=.=.@.u D I.}.4X9X0X[.T C G #.3.2.K Z 3 >         ",
"    F U F g u i i u 2 3 3 U }.0X9X7XOX[.}.E.+.F J D 4 >         ",
"    X X . O D H H H U H C U }.5X4X4X0X8X#X!.D $ 3 4 2 >         ",
"        . 2 I.@X[.[.OXOX+X[.|.|.|.#X$X#X!.*., X O >             ",
"        . F 7XuXrX9X#X X4X#X{.E.Q.Q.Q.Q.6.-.N 2 > O             ",
"        , Y tXiXiXwXj...<.h.b.a.;.>.>.<.W._.).f.L 3             ",
"        Y T.aXiXiXyXl.X. .O.s.s.:. . .>.z.`.*X.XU.8.            ",
"    J P.2XiXpXpXiXiXpX*X,.X.(.(.<...X.X.>.g.).=XiX2XT 4         ",
"    J P.2XiXuXuXiXiXiXyX<. .g.k.X.| |  . .X.h.=XiXiX:XT         ",
"        Y T.rXiXiXiXiXwX:.E [ } [ ) ) [ { | R C.aXiXiX2Xn.H     ",
"        4 U T.eXeXeXaX3Xf.` ` ] %.%.%.:.<.;.u.x.R.9XtX2XP.D     ",
"            t.d.;X<X<X;XY.B.B.B.V.V.V.Y.XXV.i.A x ^ $.#.L e     ",
"            n y.S.,XG.D.H.K.J.J.J.J.J.K.K.L.N.P g 7 8 8 5 *     ",
"            n p.D.,XG.F.H.,X,X,X,X,X,XJ.H.H.G.C.a.G d 9 6 <     ",
"            m y.m.F.>X>XD.A.A.A.A.A.A.A.D.>X,XF.v.u.z 9 0 r     ",
"                r.M.1X1XN.c.c.c.c.c.c.M.Z.D.D.S.v.u.z 9 W j t e ",
"                n r.m.C.a.S S P P S A P b.b.m.M.i.I $./ ^ k f r ",
"                    3 g x c c c c z z f h G y.r.b v w.w./ s t r ",
"                    j ~ ! Q Q Q Q Q W 8 7 < m m # l w.w./ 6 5 1 ",
"                @ c 0.w./ W W ! ! ! W s 6 *         c $.c r     ",
"                @ x 0.w.^ 0 d k k k j f r 5         @ & 1 e     ",
"                    c c f r r t t t t r                         ",
"                    @ * 1 e 1 1 1 e r e                         "
};
