/* XPM */
static char *_8408745ab4645afbd7c6e08b8032854ueIp4qLmWqvWLiZc[] = {
/* columns rows colors chars-per-pixel */
"64 64 173 2 ",
"   c None",
".  c #043B01",
"X  c #093D06",
"o  c #0B3A08",
"O  c #063601",
"+  c #113F0D",
"@  c #0F450C",
"#  c #054602",
"$  c #12410E",
"%  c #0E550C",
"&  c #164112",
"*  c #1A4216",
"=  c #1A4F17",
"-  c #1D4319",
";  c #1F4A1B",
":  c #174D14",
">  c #185716",
",  c #185815",
"<  c #1E531B",
"1  c #1C5F1A",
"2  c #204C1C",
"3  c #21521F",
"4  c #235E1F",
"5  c #1F681D",
"6  c #235620",
"7  c #245B22",
"8  c #2A5D27",
"9  c #335D30",
"0  c #1F7E22",
"q  c #276324",
"w  c #286526",
"e  c #296A27",
"r  c #2C6728",
"t  c #2B6C29",
"y  c #276A25",
"u  c #31672F",
"i  c #316D2F",
"p  c #2D742A",
"a  c #2E792C",
"s  c #356631",
"d  c #346D32",
"f  c #3C6739",
"g  c #397137",
"h  c #387F36",
"j  c #3C7439",
"k  c #3D7A3A",
"l  c #41733F",
"z  c #476843",
"x  c #497247",
"c  c #4C734A",
"v  c #4A7848",
"b  c #278F2A",
"n  c #2D8A2F",
"m  c #2E8430",
"M  c #328633",
"N  c #338C35",
"B  c #2F9632",
"V  c #2F9B32",
"C  c #349137",
"Z  c #369538",
"A  c #379B3A",
"S  c #389E3C",
"D  c #2AAE2E",
"F  c #2CAD32",
"G  c #3AA43E",
"H  c #3CA93F",
"J  c #3AB43E",
"K  c #35B439",
"L  c #41803E",
"P  c #38CB3E",
"I  c #3BA740",
"U  c #3CAB41",
"Y  c #3EB343",
"T  c #438140",
"R  c #4A8448",
"E  c #409242",
"W  c #49AC4A",
"Q  c #40B745",
"!  c #41BA46",
"~  c #44BB49",
"^  c #4BB94E",
"/  c #4AB44D",
"(  c #53BB56",
")  c #7DB97C",
"_  c #3BD040",
"`  c #3DDC43",
"'  c #44C247",
"]  c #40CF45",
"[  c #44C449",
"{  c #46CE4B",
"}  c #48CF4C",
"|  c #41D246",
" . c #45D24B",
".. c #48D34D",
"X. c #44DB4A",
"o. c #4AD94F",
"O. c #4ECA54",
"+. c #55C75A",
"@. c #4CDD51",
"#. c #53D658",
"$. c #58D75C",
"%. c #57DD5B",
"&. c #58D85C",
"*. c #51D356",
"=. c #48E04E",
"-. c #4DE453",
";. c #4FE855",
":. c #50EE57",
">. c #5AE65F",
",. c #52F359",
"<. c #5DC160",
"1. c #5CDF60",
"2. c #6DC56E",
"3. c #67C369",
"4. c #61D765",
"5. c #62DA66",
"6. c #66DE6B",
"7. c #73C774",
"8. c #7ACA7B",
"9. c #71C873",
"0. c #73D475",
"q. c #5CE361",
"w. c #5FE864",
"e. c #66E26B",
"r. c #68E76D",
"t. c #6FE173",
"y. c #71E275",
"u. c #7CE47F",
"i. c #76EA7A",
"p. c #79F27D",
"a. c #7DE580",
"s. c #86C686",
"d. c #99D798",
"f. c #9AD999",
"g. c #84E787",
"h. c #81EC85",
"j. c #85E788",
"k. c #85E989",
"l. c #89EA8C",
"z. c #87F68B",
"x. c #8AF28E",
"c. c #8DEE90",
"v. c #93EC96",
"b. c #91F995",
"n. c #9AF59D",
"m. c #AFD0AF",
"M. c #B0CDB0",
"N. c #9FEBA0",
"B. c #9EF4A1",
"V. c #A4E6A3",
"C. c #AFE2AD",
"Z. c #AAE9A9",
"A. c #A1FFA4",
"S. c #B7E7B7",
"D. c #BCFFBF",
"F. c #DCDBDB",
"G. c #CEE1CD",
"H. c #C6FFC8",
"J. c #C4F7C4",
"K. c #DBEDDB",
"L. c #DAF5DB",
"P. c #DCFEDD",
"I. c #E6DEE5",
"U. c #EBE5EA",
"Y. c #E5FFE6",
"T. c #E5FFE6",
"R. c #E7FFE8",
"E. c #EBFFEB",
"W. c #F2FFF3",
"Q. c #F1FFF2",
"!. c white",
"~. c #FCFFFD",
"^. c #FFFFFF",
/* pixels */
"7 < $ . . . . . * - & + + & * - - - - - - - - * $ $ * - - - - - - - ; ; - - ; 2 ; ; ; ; ; ; ; ; - ; ; ; ; - - - - - - - - ; 3 7 ",
"< 7 d l x x x l t y t d d i t e e e e e e e e t d d t e e e e e e e q q e e q q q q q q q q q q w q q q q e e e w w e t t q 7 3 ",
"@ d ) S.G.F.I.m.( K <.8.8.3.^ J J Y Y Y Y J J ^ 2.2.^ J J Y Y Q Q U Z Z Y Y A N C C C C C C N Z G G Z C A H Y Y H G Y ! ' S q ; ",
". j Z.~.~.~.~.Q.r.` p.A.A.z.>.X.o.-.-.-.-.o.X.w.b.b.w.X.o.-.-.-.;.o.Y Y @.@.Q I U U U U U U U Y ' ' Y U Q } -.@.{ [ @.:.,.' t - ",
". j V.Q.~.~.~.R.e.` i.n.n.h.%.| X.@.@.@.@.X.X.q.x.x.q.X.X.@.@.@.-.} U U o.o.Y G H I U U U I H U ! ! U I Y { @.o.' ' o.-.:.! t - ",
"X g f.Y.~.~.~.L.4._ y.v.v.a.#.|  ......... .| &.j.j.&.|  .....o.o.[ H U } ..Y S G H H H G G G U Q Q H H Y ' ....! Q } @.-.Q e - ",
"X g d.Y.~.~.~.L.4._ t.v.v.u.#.]  ......... .] $.g.g.$.]  .....o.o.[ H U { ..U S G H H H G G G I Q Y H G Y ' ..} Q Q { @.-.Y e - ",
"X g d.Y.~.~.~.L.4._ t.v.v.u.#.]  ......... .] $.g.g.$.]  .....o.o.[ H U { } U S G H H H G G G I Q Y H G Y ' ..} Q Q { @.-.Y e - ",
"X g d.Y.~.~.~.L.4._ y.v.v.u.#.]  ......... .] $.g.g.$.]  .....o.o.[ H U { } U S G G G G H G G I Q Y H G Y ' ..} Q Q { @.-.Y e - ",
"X g d.Y.~.~.~.L.4._ y.v.v.u.#.]  ......... .] $.g.g.$.]  .....o.o.[ H U { } U S G G G G H G G I Q Y H G Y ' ..} Q Q { @.-.Y e - ",
"X g d.Y.~.~.~.L.4._ y.v.v.u.#.]  ......... .] $.g.g.$.]  .....o.o.[ H U { } U S G G H H H G G I Q Y H G Y ' ..} Q Q { @.-.Y e - ",
"X g d.Y.~.~.~.L.4._ y.v.v.u.#.]  ......... .] $.g.g.$.] { ....o.o.[ H U { } U S G G G H H G G I Q Y H G U ' ..} Q Q { @.-.Y e - ",
"X g d.Y.~.~.~.L.4._ t.v.v.u.#.]  ......... .] $.g.g.$.] { ....o.o.[ H U { } U S G G H H G G G I Q Y H G Y ' ..} ! Q { @.-.Y e - ",
"X g d.Y.~.~.~.L.4._ t.v.v.u.#.]  ......... .] $.g.g.$.] { ....o.o.[ H U { } U S G G G G G G G I Q Y H G Y ' ..} Q Q { @.-.Y e - ",
"X g d.Y.~.~.~.L.4._ t.v.v.u.#.] { ........ .] $.g.g.$.]  .....o.o.[ H U { } U S G G G G G G G I Q Y H G Y ' ..} Q Q { @.-.Y e - ",
"X g d.Y.~.~.~.L.4._ t.v.v.u.#.] { ........ .] $.g.g.$._  .....o.o.[ H U { } U S G G G G G G G I Q Y H G Y ' ..} Q Q { @.-.Y e - ",
"X g d.Y.~.~.~.L.4._ t.v.v.u.#.]  ......... .] $.g.g.$.]  .....o.o.[ H U { } U S G H H H H G G I Q Y H G Y ' ..} Q Q { @.-.Y e - ",
"X g d.Y.~.~.~.L.4._ t.v.v.u.#.]  ......... .] $.g.g.$.]  .....o.o.[ H U { } U S G H H H H G G I Q Y H G Y ' ..} Q Q { @.-.Y e - ",
"X g d.Y.~.~.~.L.4._ t.v.v.u.#.]  ......... ._ $.g.g.$.]  .....o.o.[ H U { } U S G H H H H G G I Q Y H G Y ' ..} Q Q { @.-.Y e - ",
"X g d.Y.~.~.~.L.4._ t.v.v.u.#.]  ......... .] $.g.g.$.] { ....o.o.[ H U { } U S G H H H G G G I Q Y H G Y ' ..} Q Q { @.-.Y e - ",
"X g d.Y.~.~.~.L.4._ t.v.v.u.#.]  ......... .] $.g.g.$.] { ....o.o.[ H U { } U S S G H H H G G I Q Y H G Y ' ..} Q Q { @.-.Y e - ",
"X g d.Y.~.~.~.L.4._ t.v.v.u.#.]  .........{ ] $.g.g.$.] { ....o.o.[ H U { } U S S G G G H G G I Q Y H G Y ' ..} Q Q { @.-.Y e - ",
"X g d.Y.~.~.~.L.4._ t.v.v.u.#.]  ......... .] $.g.g.$.]  .....o.o.[ H U { } U S S G G G H G G I Q Y H G Y ' ....! Q { @.-.Y e - ",
"X g d.Y.~.~.~.L.4._ t.v.v.u.#.]  ......... .] $.g.g.$._  .....o.o.[ H U { } U S S G G G H G G I Q Y H G Y ' ....! Q { @.-.Y e - ",
"X g f.Y.~.~.~.L.4._ y.v.v.a.#.|  ......... .| &.j.j.&.|  .....o.o.[ H U } ..Y S G H H H H G G U Q Q H H Y ' ....! Q } @.-.Q e - ",
". g V.Q.~.~.~.R.e.` i.n.n.h.%.| X.@.@.@.@.X.X.q.x.x.q.X.X.@.@.@.-.} U U o.o.Y G H I U U U I H U ! ! U I Y { @.o.' ' o.-.:.! t - ",
". j Z.~.~.~.~.Q.r.` p.A.A.z.>.X.=.-.-.-.-.=.X.w.b.b.w.X.=.-.-.-.;.o.Y Y @.@.Q I U U U U U U U Y ' ' Y U Q } -.@.{ [ @.,.,.' t - ",
"@ g s.J.K.U.I.M./ D ( 7.8.2.^ J J Y Q Q Y J J ^ 9.9.^ J J Y Q Q Q U Z Z Y Y A N N C C C C C N Z G S C C A H Q Y G H Q [ } H t 2 ",
"4 r k R v c z 9 > % , 7 u u q 7 7 q q q q q q w u u q 7 q q q q q q 7 7 q q 7 7 7 7 7 7 7 7 7 7 7 7 7 7 7 q q q 7 q t p a p w 7 ",
"8 3 $ . . # % 1 s f s 8 < : < < < < 3 3 3 3 3 < = = < < 3 3 3 3 3 6 6 6 3 6 7 7 7 7 7 7 7 7 7 7 6 6 6 6 6 6 3 3 6 3 2 - - ; 6 7 ",
"        O 5 W 0.f.C.C.s.E 0 b V V B N M M M M M m n B B N M M N N N N N N N C C C C C N N N C C N N N N N N N N C M q -         ",
"        o h g.D.Y.~.~.H.+.F ' *.#.O.Q Y Y Y Y Y Y ~ O.O.~ Y Y Y U U Y Y U U U U U U U U Y Y U U Y Y Y Y Y Y Y ! [ U p -         ",
"        o L N.Y.~.~.~.P.4.P 6.j.j.y.*.] { } } { ] #.u.u.#.|  .[ U U { } Y H H U U I H U Q Q U I Y ' } } ! Q { @.-.' a -         ",
"        X T Z.Q.~.~.~.Y.6.` i.B.B.j.%.|  .o.o. .| 1.c.c.q.X.X.{ H U ..o.Y S G G H G G U Q Q H G Y [ o.o.! ! ..-.:.{ a -         ",
"        X L Z.E.~.~.~.L.4._ y.n.n.h.#.|  .o.o. .| &.l.l.&.| X.{ H U } ..U S G H H G G U Q Q H G Y ' o...! Q } -.;.[ a -         ",
"        X L V.Y.~.~.~.L.4._ y.v.v.a.#.]  ..... .| &.j.j.&.|  .[ H U { ..U S G H H G G U Q Y H G U ' ..} Q Q { @.-.' a -         ",
"        X L V.Y.~.~.~.L.4._ t.v.v.u.#.] { .... .] $.g.g.&.|  .[ H U { } U S G H H G G I Q Y H G Y ' ..} Q Q { @.-.' a -         ",
"        X L V.Y.~.~.~.L.4._ t.v.v.u.#.] { .... .] $.g.g.&.|  .[ H U { } U S G H H G G I Q Y H G Y ' ..} Q Q { @.-.' a -         ",
"        X L V.Y.~.~.~.L.4._ t.v.v.u.#._  ..... .] $.g.g.&.|  .[ H U { } U S G H H G G I Q Y H G Y ' ..} Q Q { @.-.' a -         ",
"        X L V.Y.~.~.~.L.4._ t.v.v.u.#._ { .... .] $.g.g.&.|  .[ H U { } U S G H H G G I Q Y H G Y ' ..} Q Q { @.-.' a -         ",
"        X L V.Y.~.~.~.L.4._ y.v.v.u.#.]  ..... .] $.g.g.&.|  .[ H U { } U S G H H G G I Q Y H G Y ' ..} Q Q { @.-.' a -         ",
"        X L V.Y.~.~.~.L.4._ y.v.v.u.#.]  ..... .] $.g.g.&.|  .[ H U { } U S G H H G G I Q Y H G Y ' ..} Q Q { @.-.' a -         ",
"        X L V.Y.~.~.~.L.4._ y.v.v.u.#.]  ..... .] $.g.g.&.|  .[ H U { } U S G H G G G I Q Y H G Y ' ..} Q Q { @.-.' a -         ",
"        X L V.Y.~.~.~.L.4._ t.v.v.u.#.]  ..... .] $.g.g.&.|  .[ H U { } U S G G G G G I Q Y H G Y ' ..} Q Q { @.-.' a -         ",
"        X L Z.Y.~.~.~.L.4._ t.v.v.u.#.]  ..... .] $.g.g.&.|  .[ H U { } U S G G H G G I Q Y H G Y ' ..} Q Q { @.-.' a -         ",
"        X L V.Y.~.~.~.L.4._ t.v.v.u.#.]  ..... .] $.g.g.&.|  .[ H U { } U S G G H G G I Q Y H G Y ' ..} Q Q { @.-.' a -         ",
"        X L V.Y.~.~.~.L.4._ t.v.v.u.#.]  ..... .] $.g.g.&.|  .[ H U { } U S G G H G G I Q Y H G Y ' ..} Q Q { @.-.' a -         ",
"        X L V.Y.~.~.~.L.4._ t.v.v.u.#.]  ..... .] $.g.g.&.|  .[ H U { } U S G H H G G I Q Y H G Y ' ..} Q Q { @.-.' a -         ",
"        X L V.Y.~.~.~.L.4._ t.v.v.u.#.]  ..... .] $.g.g.&.|  .[ H U { } U S G G G G G I Q Y H G Y ' ..} Q Q { @.-.' a -         ",
"        X L V.Y.~.~.~.L.4._ t.v.v.u.#.]  ..... .] $.g.g.&.|  .[ H U { } U S G G G G G I Q Y H G Y ' ..} Q Q { @.-.' a -         ",
"        X L V.Y.~.~.~.L.4._ y.v.v.u.#.]  ..... .] $.g.g.&.|  .[ H U { } U S G H G G G I Q Y H G Y ' ..} Q Q { @.-.' a -         ",
"        X L V.Y.~.~.~.L.4._ y.v.v.u.#.]  ..... .] $.g.g.&.|  .[ H U { } U S G H G G G I Q Y H G Y ' ..} Q Q { @.-.' a -         ",
"        X L V.Y.~.~.~.L.4._ t.v.v.u.#._  ..... .] $.g.g.&.|  .[ H U { } U S G G H G G I Q Y H G Y ' ..} Q Q { @.-.' a -         ",
"        X L V.Y.~.~.~.L.4._ t.v.v.u.#._  ..... .] $.g.g.&.|  .[ H U { } U S G G H G G I Q Y H G Y ' ..} Q Q { @.-.' a -         ",
"        X L V.Y.~.~.~.L.4._ t.v.v.u.#._ { ....{ | &.g.g.&.|  .[ H U { } U S G G H G G I Q Y H G Y ' ..} ! Q { @.-.' a -         ",
"        X L V.Y.~.~.~.L.4._ t.v.v.u.#._ { .... .| &.g.g.&.|  .[ H U { } U S G H H G G I Q Y H G Y ' ....! Q { @.-.' a -         ",
"        X L V.Y.~.~.~.L.4._ t.v.v.a.#.] { ....{ _ $.g.g.&.|  .[ H U { } U S G G G G G I Q Y H G Y ' ..} Q Q { @.-.' a -         ",
"        X L V.Y.~.~.~.L.4._ t.v.v.a.#.] { .... ._ $.g.g.&.|  .[ H U { } U S G G G G G I Q Y H G Y ' ..} Q Q { @.-.' a -         ",
"        X L V.Y.~.~.~.L.4._ t.v.v.u.#.]  ..... .] $.g.g.&.|  .[ H U { } U S G H H G G I Q Y H G U ' ..} Q Q { @.-.' a -         ",
"        X L V.Y.~.~.~.L.4._ t.v.v.u.#.]  ..... .] $.g.g.&.|  .[ H U { } U S G H H G G I Q Y H G U ' ..} Q Q { @.-.' a -         ",
"        X L V.Y.~.~.~.L.4._ t.v.v.u.#.]  ..... .] $.g.g.&.|  .[ H U { } U S G H H G G I Q Y H G U ' ..} Q Q { @.-.' a -         ",
"        X L V.Y.~.~.~.L.4._ t.v.v.u.#.]  ..... .] $.g.g.&.|  .[ H U { } U S G H H G G I Q Y H G Y ' ..} Q Q { @.-.' a -         ",
"        X L V.Y.~.~.~.L.4._ y.v.v.u.#.]  ..... .] $.g.g.&.|  .[ H U { } U S G H H G G I Q Y H G Y ' ..} Q Q { @.-.' a -         ",
"        X L V.Y.~.~.~.L.4._ y.v.v.u.#.]  ..... .] $.g.g.&.|  .[ H U { } U S G H H G G I Q Y H G Y ' ..} Q Q { @.-.' a -         "
};
