/* XPM */
static char *_f17752e595e431ba729c8dbb6923971cgB5BMb7spxiYZfk[] = {
/* columns rows colors chars-per-pixel */
"32 32 91 1 ",
"  c None",
". c #BE3E17",
"X c #D62817",
"o c #D72A18",
"O c #D82E1A",
"+ c #C73517",
"@ c #C73718",
"# c #CC3318",
"$ c #C23C18",
"% c #CB3F1C",
"& c #D4331A",
"* c #DA331C",
"= c #DB391E",
"- c #DE3F20",
"; c #9C5C16",
": c #B54717",
"> c #BA4117",
", c #BE4118",
"< c #A45517",
"1 c #AB5017",
"2 c #A25A17",
"3 c #AB5819",
"4 c #B7541C",
"5 c #8F6716",
"6 c #866F16",
"7 c #8D6A16",
"8 c #8D6E18",
"9 c #946316",
"0 c #986317",
"q c #9D6F1D",
"w c #847115",
"e c #887017",
"r c #8E7119",
"t c #95741C",
"y c #9B761E",
"u c #9F7720",
"i c #AE7523",
"p c #A47922",
"a c #A97B24",
"s c #B17E27",
"d c #B67F29",
"f c #CF421D",
"g c #D4421E",
"h c #D64420",
"j c #DD4321",
"k c #D64C22",
"l c #CB5020",
"z c #E04623",
"x c #E04824",
"c c #E15027",
"v c #E45429",
"b c #E65B2C",
"n c #E85F2E",
"m c #C66425",
"M c #DE6F2F",
"N c #C37129",
"B c #CE7D2F",
"V c #E56830",
"C c #EC6E33",
"Z c #EE7235",
"A c #F17C39",
"S c #BB812B",
"D c #C4842F",
"F c #CA8731",
"G c #CE8833",
"H c #D08131",
"J c #D98435",
"K c #D38A34",
"L c #DB8C37",
"P c #DD8D39",
"I c #E28E3A",
"U c #E8893A",
"Y c #F2803A",
"T c #F4803B",
"R c #F5883E",
"E c #E5903B",
"W c #E4903C",
"Q c #E8913C",
"! c #ED923F",
"~ c #F78C40",
"^ c #F98E41",
"/ c #EF9340",
"( c #F29341",
") c #F49241",
"_ c #F29441",
"` c #F59642",
"' c #F99343",
"] c #F89643",
"[ c #FB9744",
"{ c #FB9845",
"} c #FC9845",
/* pixels */
"                                ",
"                                ",
"         oooooooooooo           ",
"         ooooooooooooo          ",
"       oooooooooooooooooooo     ",
"       $$$$$$$$hjzj%$gj*ooo     ",
"       7777777qJ~^UiqH^         ",
"       6rsstraDQ[}QayG}{        ",
"     66eyIIpyG`][}QayG`[[[[     ",
"     66eyIIarpSW][`IFSSI[[[[[   ",
"     666tKLsttpP[[])LatFQ!!`[[  ",
"     666etaGWEQ`[[!Stretyyy     ",
"      66rudI[[[[[[!Dpppppte     ",
"         Q_`[[[[[[`)(/__(       ",
"        ySDDBMVBDDDDFP[[[       ",
"       66eee0,#;7ee78r          ",
"      66666w9.#;6e71:;e6666     ",
"     666666w9,#<95;$+<e6666     ",
"   eeeee666w9,O#@@#o+<666677ee  ",
"   aaaappr793lz*ooO-k4;77ypaaa  ",
"   (__()Ip0>jCTzoX=CAc+2tK((__  ",
"   [[[[[_FNf*xb=oo*vb-&mDW`[[[  ",
"   [[[[[[`AxooOoooooOo*C)][[[[  ",
"   [[[[[~nx*ooooooooooOjvY]{[[  ",
"   [[[]RAjOooooooooooooo*Z'{[[  ",
"       -=Oooooo  oooooooo       ",
"       >....$#o  oo@....,       ",
"     667777779     97777776     ",
"     66666666      6666666666   ",
"   6666666666      66666666666  ",
"                                ",
"                                "
};
