/* XPM */
static char *_51fffb101b34a0cc86eef78f961944caX1YxoVz2JkDJZqu[] = {
/* columns rows colors chars-per-pixel */
"32 32 187 2 ",
"   c black",
".  c black",
"X  c #2A1300",
"o  c #2B1400",
"O  c #2C1900",
"+  c #4F2C0A",
"@  c #55320E",
"#  c #5C3912",
"$  c #52300D",
"%  c #261300",
"&  c #2B1400",
"*  c #95642A",
"=  c #A06E30",
"-  c #583610",
";  c #291200",
":  c #E7A24F",
">  c #BB8441",
",  c #B88340",
"<  c #D89547",
"1  c None",
"2  c #1D190E",
"3  c #74441B",
"4  c #1D160C",
"5  c #070401",
"6  c #5B2F0E",
"7  c #753C13",
"8  c #2C1600",
"9  c #5D310D",
"0  c #482908",
"q  c #3C2105",
"w  c #331900",
"e  c #48290A",
"r  c #3F2606",
"t  c #291100",
"y  c #3A2204",
"u  c #2A2A00",
"i  c #331800",
"p  c #311700",
"a  c #2E1600",
"s  c #2C1500",
"d  c #2C1400",
"f  c #321700",
"g  c #341800",
"h  c #653D12",
"j  c #694114",
"k  c #653F14",
"l  c #5C3912",
"z  c #583711",
"x  c #593711",
"c  c #5C3911",
"v  c #643E13",
"b  c #6B4215",
"n  c #6A4215",
"m  c #C0833C",
"M  c #CB8A3E",
"N  c #C4863C",
"B  c #B57C38",
"V  c #AD7736",
"C  c #AE7836",
"Z  c #AF7937",
"A  c #B47C38",
"S  c #C3853C",
"D  c #CE8D40",
"F  c #CB8D41",
"G  c #AF7B3B",
"H  c #CF8F44",
"J  c #E09A48",
"K  c #DE9948",
"L  c #DB9747",
"P  c #DA9647",
"I  c #DD9848",
"U  c #D09144",
"Y  c #B37F3E",
"T  c #B27634",
"R  c #613A10",
"E  c #341901",
"W  c #1E150B",
"Q  c #97622A",
"!  c #D98C3C",
"~  c #D0863A",
"^  c #C57F37",
"/  c #C47E37",
"(  c #DA8C3C",
")  c #9E682E",
"_  c #2A2212",
"`  c #874D1A",
"'  c #58320B",
"]  c #3C2104",
"[  c #0A0100",
"{  c #7F481B",
"}  c #BF702B",
"|  c #B66B29",
" . c #AC6427",
".. c #AB6426",
"X. c #B76B29",
"o. c #C0712C",
"O. c #854D1E",
"+. c #130802",
"@. c black",
"#. c #4B2106",
"$. c #68330B",
"%. c #4E2A08",
"&. c #3E2405",
"*. c #914B1A",
"=. c #9C4F1B",
"-. c #9C501B",
";. c #9A501C",
":. c #9D521C",
">. c #A0531D",
",. c #924B1A",
"<. c #763913",
"1. c #6A3210",
"2. c #6C340E",
"3. c #5F300B",
"4. c #482707",
"5. c #3C2304",
"6. c #8C4014",
"7. c #8F4416",
"8. c #934717",
"9. c #924617",
"0. c #914617",
"q. c #9B4C19",
"w. c #AE561E",
"e. c #A5531C",
"r. c #814215",
"t. c #5E310D",
"y. c #462707",
"u. c #3A2104",
"i. c #924717",
"p. c #954919",
"a. c #954A19",
"s. c #944919",
"d. c #944918",
"f. c #9B4D1A",
"g. c #A6531D",
"h. c #9E4F1B",
"j. c #7F4115",
"k. c #5F320D",
"l. c #974B1A",
"z. c #974C1A",
"x. c #9A4D1B",
"c. c #944B19",
"v. c #7D4014",
"b. c #60330D",
"n. c #472707",
"m. c #9D4F1B",
"M. c #934A19",
"N. c #D08639",
"B. c #964C1A",
"V. c #964B1A",
"C. c #A7541D",
"Z. c #7F4114",
"A. c #C0702B",
"S. c #954B1A",
"D. c #9F501C",
"F. c #AF581E",
"G. c #5E320D",
"H. c #854E1F",
"J. c #934A1A",
"K. c #7C3E16",
"L. c #713913",
"P. c #743B12",
"I. c #64350E",
"U. c #492808",
"Y. c #3B2204",
"T. c #130C05",
"R. c #1A0C05",
"E. c #0F0703",
"W. c #5A2E0E",
"Q. c #713B10",
"!. c #502C09",
"~. c #3C2204",
"^. c #6A320F",
"/. c #9E501B",
"(. c #763D11",
"). c #552E09",
"_. c #402505",
"`. c #321800",
"'. c #4B2207",
"]. c #6F3A10",
"[. c #532E09",
"{. c #422605",
"}. c #4E2A07",
"|. c #351A00",
" X c #3D2203",
".X c #3C2305",
"XX c #432705",
/* pixels */
"  . X i p a s d d d d d d d d d d d d d d d d d d s a f g o .   ",
"O + @ h j k l z x x x x x x x x x x x x x x x x z c v b n # $ % ",
"& @ * m M N B V C Z Z Z Z Z Z Z Z Z Z Z Z Z Z C V A S D F = - ; ",
"f h m : > G H J K L P P P P P P P P P P P P L I J U Y , < T R E ",
"p j M > 1 W Q ! ~ ^ / / / / / / / / / / / / ^ ~ ( ) _ 2 3 ` ' ] ",
"a k N G W [ { } |  ......................... .X.o.O.+.@.#.$.%.&.",
"s l B H Q { *.=.-.;.;.;.;.;.;.;.;.;.;.;.;.;.;.:.>.,.<.1.2.3.4.5.",
"d z V J ! } =.6.7.8.8.8.8.8.8.8.8.8.8.8.8.8.8.9.0.q.w.e.r.t.y.u.",
"d x C K ~ | -.7.i.p.a.a.a.a.a.a.a.a.a.a.a.a.a.s.d.f.g.h.j.k.y.u.",
"d x Z L ^  .;.8.p.l.z.z.z.z.z.z.z.z.z.z.z.z.z.z.z.x.h.c.v.b.n.u.",
"d x Z P / ..;.8.a.z.z.z.z.z.z.z.z.z.z.z.z.z.z.z.z.x.m.M.v.b.n.u.",
"d x Z P / ..;.8.a.z.z.z.z.z.z.z.z.z.z.z.z.z.z.z.z.x.m.M.v.b.n.u.",
"d x Z P / ..;.8.a.z.z.z.z.z.z.z.z.z.z.z.z.z.z.z.z.x.m.M.v.b.n.u.",
"d x Z P / ..;.8.a.z.z.z.z.z.z.z.z.z.z.z.z.z.z.z.z.x.m.M.v.b.n.u.",
"d x Z P / ..;.8.a.z.z.z.z.z.z.z.z.z.z.z.z.z.z.z.z.x.m.M.v.b.n.u.",
"d x Z P / ..;.8.a.z.z.z.z.z.z.z.z.z.z.z.z.z.z.z.z.x.m.M.v.b.n.u.",
"d x Z P / ..;.8.a.z.z.z.z.z.z.z.z.z.z.z.z.z.z.z.z.x.m.M.v.b.n.u.",
"d x Z P / ..;.8.a.z.z.z.z.z.z.z.z.z.z.z.z.z.z.z.z.x.m.M.v.b.n.u.",
"d x Z P / ..;.8.a.z.z.z.z.z.z.z.z.z.z.z.z.z.z.z.z.x.m.M.v.b.n.u.",
"d x Z P / ..;.8.a.z.z.z.z.z.z.z.z.z.z.z.z.z.z.z.z.x.m.M.v.b.n.u.",
"d x Z P / ..;.8.a.z.z.z.z.z.z.z.z.z.z.z.z.z.z.z.z.x.m.M.v.b.n.u.",
"d x Z P / ..;.8.a.z.z.z.z.z.z.z.z.z.z.z.z.z.z.z.z.x.m.M.v.b.n.u.",
"d x Z L ^  .;.8.a.z.z.z.z.z.z.z.z.z.z.z.z.z.z.z.z.x.h.c.v.b.n.u.",
"d x C I N.X.:.9.s.z.z.z.z.z.z.z.z.z.z.z.z.z.z.B.V.=.C.m.Z.k.y.u.",
"d z V J ( A.>.0.d.z.z.z.z.z.z.z.z.z.z.z.z.z.z.V.S.D.F.e.r.G.y.u.",
"s c A U ) H.,.q.f.x.x.x.x.x.x.x.x.x.x.x.x.x.x.=.D.J.K.L.P.I.U.Y.",
"a v S Y _ T.<.w.g.h.m.m.m.m.m.m.m.m.m.m.m.m.h.C.F.K.R.E.W.Q.!.~.",
"p b D , 4 @.^.e./.c.M.M.M.M.M.M.M.M.M.M.M.M.c.m.e.L.E.5 6 (.)._.",
"`.n F < 3 '.2.r.j.v.v.v.v.v.v.v.v.v.v.v.v.v.v.Z.r.P.W.6 7 ].[.{.",
"8 # = T ` $.3.t.k.b.b.b.b.b.b.b.b.b.b.b.b.b.b.k.G.I.Q.(.].9 0 q ",
"w $ - R ' }.4.y.y.n.n.n.n.n.n.n.n.n.n.n.n.n.n.y.y.U.!.).[.0 e r ",
"  . t |. X&..Xu.u.u.u.u.u.u.u.u.u.u.u.u.u.u.u.u.u.Y.~._.XXy u   "
};
