/* XPM */
static char *e6be06cf3fbc4f1c85b574f7226d2985[] = {
/* columns rows colors chars-per-pixel */
"32 32 229 2 ",
"   c None",
".  c black",
"X  c #000002",
"o  c #000003",
"O  c #070300",
"+  c #000004",
"@  c #090500",
"#  c #151200",
"$  c #161300",
"%  c #181400",
"&  c #191500",
"*  c #1B1500",
"=  c #191600",
"-  c #252000",
";  c #262000",
":  c #4F4400",
">  c #504500",
",  c #514500",
"<  c #544907",
"1  c #564C0A",
"2  c #564C0B",
"3  c #6C5F0E",
"4  c #705F00",
"5  c #6E610D",
"6  c #6C600E",
"7  c #6E610E",
"8  c #716100",
"9  c #716200",
"0  c #726201",
"q  c #786800",
"w  c #7D6C00",
"e  c #7A6A04",
"r  c #72640C",
"t  c #7A6B0D",
"y  c #7A6B0E",
"u  c #7A6C0E",
"i  c #7A7139",
"p  c #79713F",
"a  c #615E50",
"s  c #726C47",
"d  c #7D7649",
"f  c #616265",
"g  c #636467",
"h  c #78766B",
"j  c #6F6F71",
"k  c #686A74",
"l  c #6F717B",
"z  c #757577",
"x  c #78787A",
"c  c #79797B",
"v  c #827000",
"b  c #847100",
"n  c #8E7C08",
"m  c #827210",
"M  c #827311",
"N  c #8B7A10",
"B  c #807E6F",
"V  c #9A870E",
"C  c #9B8915",
"Z  c #A49113",
"A  c #AE9911",
"S  c #BAA100",
"D  c #D3BA1A",
"F  c #E7C600",
"G  c #EAC600",
"H  c #E8C800",
"J  c #E9C800",
"K  c #EAC900",
"L  c #EBC900",
"P  c #EACA00",
"I  c #EBCA00",
"U  c #EBCB00",
"Y  c #ECCA00",
"T  c #EDCB00",
"R  c #ECCC00",
"E  c #EDCC00",
"W  c #EDCD00",
"Q  c #EECD00",
"!  c #EECE00",
"~  c #EFCE00",
"^  c #EDCC02",
"/  c #EFD003",
"(  c #F0D000",
")  c #F0D002",
"_  c #F0D003",
"`  c #F1D103",
"'  c #F7D400",
"]  c #F1D105",
"[  c #F0D106",
"{  c #F1D107",
"}  c #F8D600",
"|  c #FFDD00",
" . c #FFDF00",
".. c #FFDF07",
"X. c #F1D208",
"o. c #F1D20A",
"O. c #F1D20E",
"+. c #F7D70E",
"@. c #F6D70F",
"#. c #F7D80B",
"$. c #F7D80E",
"%. c #FADA0B",
"&. c #FDDD13",
"*. c #FADB14",
"=. c #FDDE14",
"-. c #FFE000",
";. c #FFE100",
":. c #FFE200",
">. c #FFE203",
",. c #FFE10E",
"<. c #FFF300",
"1. c #FFF400",
"2. c #FFE010",
"3. c #FFE016",
"4. c #FFE116",
"5. c #FFEC10",
"6. c #FFE118",
"7. c #FFE219",
"8. c #FFE11A",
"9. c #FFE21A",
"0. c #FFE41B",
"q. c #FFE41C",
"w. c #FFE51C",
"e. c #FFE61E",
"r. c #FFEA19",
"t. c #FFE81B",
"y. c #FFEC1E",
"u. c #FFF419",
"i. c #FFF51E",
"p. c #F1D420",
"a. c #F1D525",
"s. c #F8DB21",
"d. c #F1D62C",
"f. c #F1D62F",
"g. c #F2D730",
"h. c #F2D835",
"j. c #F3D836",
"k. c #FADE31",
"l. c #F3D938",
"z. c #FFE220",
"x. c #FFE321",
"c. c #FFE421",
"v. c #FFE226",
"b. c #FFE524",
"n. c #FFE624",
"m. c #FFEB21",
"M. c #FFEC24",
"N. c #FFED28",
"B. c #FFF424",
"V. c #FFF624",
"C. c #FFF625",
"Z. c #FFF725",
"A. c #FFF626",
"S. c #FFF727",
"D. c #FFFA22",
"F. c #FFF825",
"G. c #FFFB25",
"H. c #FFF927",
"J. c #FFFA27",
"K. c #FFFD25",
"L. c #FFFD26",
"P. c #FFFF27",
"I. c #FFEB32",
"U. c #FFE539",
"Y. c #F6DF57",
"T. c #F6DF5D",
"R. c #FCE242",
"E. c #FFE542",
"W. c #FDE449",
"Q. c #FFE648",
"!. c #FFE74C",
"~. c #FFE64D",
"^. c #FFE74F",
"/. c #FFED4D",
"(. c #FFE756",
"). c #FFE857",
"_. c #F7E164",
"`. c #FFE962",
"'. c #F8E36C",
"]. c #F8E46D",
"[. c #F9E46D",
"{. c #FFED69",
"}. c #F9E677",
"|. c #FFEB77",
" X c #FFEB78",
".X c #FFEB79",
"XX c #7D7E89",
"oX c #808082",
"OX c #808182",
"+X c #828385",
"@X c #80828B",
"#X c #89898A",
"$X c #898A8B",
"%X c #8A8A8B",
"&X c #8B8B8C",
"*X c #98968A",
"=X c #8F9091",
"-X c #919192",
";X c #929394",
":X c #939394",
">X c #949495",
",X c #949596",
"<X c #959596",
"1X c #98999A",
"2X c #9B9C9D",
"3X c gray67",
"4X c #FFEC80",
"5X c #FFED83",
"6X c #FAE887",
"7X c #FFEE87",
"8X c #FFEE92",
"9X c #FFF1A1",
"0X c #FFF0A2",
"qX c #FFF2B5",
"wX c #FFF2B6",
"eX c #FFF2B8",
"rX c #FFF3BA",
"tX c #FFF3BC",
"yX c #FFF3BF",
"uX c #FFF4BF",
"iX c #FFF4C2",
"pX c #FFF5C3",
"aX c #FFF5C4",
"sX c #FFF7C6",
"dX c #FFF7C7",
"fX c #FFF6CB",
"gX c #FFF5CF",
"hX c #FFFBD8",
"jX c #FFFAE0",
/* pixels */
"                        . . . . . . . l                         ",
"                    1XB 5 5 3 3 3 5 r d 2X                      ",
"                    . * K.G.S.S.S.S.K.n . z                     ",
"                    . - M.e.@.*.z.c.G.N . OX                    ",
"                    . $ N.9.F ) 3.9.S.M . @X                    ",
"                f a C A @.$.#.k.4X).r.D Z i g                   ",
"                . @ G.i.H / ,.!.gX4X=.m.K.e . &X                ",
"                . * n.e.H p.7X8XeX.X3.z.S.y . ;X                ",
"                . * n.0.H f.fXtXqX|.3.z.S.y . <X                ",
"                . * n.e.H O.U.`.tX.X3.z.S.y . <X                ",
"                . * n.e.H ) ..E.pX.X3.z.S.y . =X                ",
"                + * n.e.H a.0X0XeX|.3.z.S.u . #X                ",
"                + * n.0.H f.uXqXqX|.3.z.S.y . #X                ",
"                + * n.e.H o.v.(.pX[.R ) -.8 . #X                ",
"                + * n.e.R { 2.Q.aX'.H R  .8 . #X                ",
"                + * n.e.Y { 9.!.aX'.H R -.8 . #X                ",
"                . * n.e.H { 9.!.aX'.H R -.8 . ;X                ",
"                . * n.e.H o.9.!.aX'.H R -.8 . <X                ",
"                . * n.e.H { &.Q.aX'.H R -.8 . <X                ",
"                . * n.e.R R H h.aX[.H R -.8 . <X                ",
"                . * n.e.R R H h.aX[.H R -.8 . <X                ",
"                . * n.e.R R Y h.aX[.H R -.8 . -X                ",
"                + * n.e.R R Y h.aX[.H R -.8 . #X                ",
"                + * n.e.R R Y h.sX[.H R -.8 . #X                ",
"                . * n.e.R R H h.sX[.H R -.8 . #X                ",
"                . O G.i.H H G g.hX}.H } 1.4 . OX                ",
"                +Xh M V %.s.T.Y._.l.' S w p x                   ",
"                    . $ r./.jX6XG Y -.q . XX                    ",
"                    . - y.I.{.R.R ) -.v . x                     ",
"                    . * K.D.u.5. . .<.b . j                     ",
"                    3X*X2 2 2 < : > > s 3X                      ",
"                        . . . . . . . k                         "
};
