/* XPM */
static char *c4b5e736d27843a3dd8b45bda5f07190RyA8aHqDABXACsGY[] = {
/* columns rows colors chars-per-pixel */
"32 32 137 2 ",
"   c None",
".  c #000000",
"X  c #080700",
"o  c #06070B",
"O  c #07080D",
"+  c #09090E",
"@  c #120D00",
"#  c #141003",
"$  c #181607",
"%  c #131313",
"&  c #2B2502",
"*  c #2A260E",
"=  c #302700",
"-  c #362E00",
";  c #3C3300",
":  c #2A2715",
">  c #2B2816",
",  c #37331A",
"<  c #1B1C20",
"1  c #313132",
"2  c #3C3A31",
"3  c #333339",
"4  c #443B03",
"5  c #483C00",
"6  c #453D0E",
"7  c #4C4202",
"8  c #524601",
"9  c #534801",
"0  c #5D541F",
"q  c #655600",
"w  c #695C07",
"e  c #7C6B01",
"r  c #4C4725",
"t  c #5D5523",
"y  c #484638",
"u  c #645C27",
"i  c #6A612A",
"p  c #736B30",
"a  c #404145",
"s  c #46474C",
"d  c #615E49",
"f  c #787040",
"g  c #7D795F",
"h  c #5E5F62",
"j  c #7D7D7C",
"k  c #867C3B",
"l  c #827F6E",
"z  c #978403",
"x  c #988403",
"c  c #96840F",
"v  c #9E8B10",
"b  c #A08A03",
"n  c #A48F0A",
"m  c #B69D01",
"M  c #A39016",
"N  c #B9A319",
"B  c #CAAF02",
"V  c #D5BA0D",
"C  c #C7AF14",
"Z  c #C8B11B",
"A  c #D5BB16",
"S  c #DCC00C",
"D  c #E9C700",
"F  c #ECCC00",
"G  c #EED00D",
"H  c #F3D303",
"J  c #F9D700",
"K  c #FAD903",
"L  c #F4D50C",
"P  c #FADA0A",
"I  c #F6D711",
"U  c #F7D812",
"Y  c #F9DA13",
"T  c #FBDD1B",
"R  c #FFE203",
"E  c #FFE905",
"W  c #FFE40F",
"Q  c #FFEA0F",
"!  c #FFF603",
"~  c #FFFB03",
"^  c #FFE412",
"/  c #FFE21C",
"(  c #FFF41F",
")  c #FFFA1D",
"_  c #FFE325",
"`  c #FFEC24",
"'  c #FFE429",
"]  c #FFF424",
"[  c #FFFF26",
"{  c #FFFE2A",
"}  c #FFE435",
"|  c #FEE43A",
" . c #858374",
".. c #888571",
"X. c #F6DE45",
"o. c #FDE447",
"O. c #FFEB45",
"+. c #FFE74B",
"@. c #FFE84A",
"#. c #FFE852",
"$. c #FEE85C",
"%. c #FFF25B",
"&. c #E2D477",
"*. c #FEEA63",
"=. c #F3E16E",
"-. c #FFEC69",
";. c #FFF366",
":. c #FFF473",
">. c #FFFB76",
",. c #FFF579",
"<. c #FFFF7C",
"1. c #83858B",
"2. c #8C8C90",
"3. c #9B9A97",
"4. c #919299",
"5. c #A0A1A6",
"6. c #AAAAA6",
"7. c #AAAAAA",
"8. c #F7E781",
"9. c #FCEC83",
"0. c #FFF387",
"q. c #FFFF84",
"w. c #FFF389",
"e. c #FFF08D",
"r. c #FFF88C",
"t. c #FFF88D",
"y. c #FFFC8C",
"u. c #FFFD8F",
"i. c #FFF192",
"p. c #FFF393",
"a. c #FFF194",
"s. c #FFF297",
"d. c #FFFF90",
"f. c #FFFF92",
"g. c #FFF995",
"h. c #FFF29B",
"j. c #FFFF9E",
/* pixels */
"                      2.. . . . . . . . .                       ",
"                       .& * > : : : : : >                       ",
"                  4.. w ) %.g.t.t.t.t.y.f.$ .                   ",
"                  l ; c ( O.-.*.*.*.*.;.;.t , 6.                ",
"              5.. 9 [ ` ' L D D D D D D D >.j.. .               ",
"              ..8 c ] / T L L L H L L H L @.*.u r 3.            ",
"            . 7 [ ` _ I D U ' / / / / _ ' F D <.f.. .           ",
"            . 7 ] _ _ I D I _ | +.+.+.' _ H D :.w.X .           ",
"            . 4 ] _ ' U D I / -.h.i.h.| W F D ,.i.. .           ",
"        1.g e n ` T I I I U P } +.o.o.+.#.T L | X.k f j 2.      ",
"        . = ! Q _ U D L ' U H J K K J -.s.| / F D q.y.. .       ",
"        . ; R Y ' Y D L ' U H P P P K *.e.} / F F ,.8.. o       ",
"        . ; R P ' U D L ' U H P P P K *.e.} / F F ,.8.. +       ",
"        . ; R P ' U D L ' U H P P P K *.e.} / F F ,.8.. +       ",
"        . ; R P ' Y D L ' U H P P P K *.e.} / F F ,.8.. +       ",
"        . ; R P ' Y D L ' U H P P P K *.e.} / F F ,.8.. O       ",
"        . ; R P ' Y D L ' U H P P P K *.e.} / F F ,.8.. +       ",
"        . ; R P ' Y D I ' U H P P P K *.e.} / F F ,.8.. +       ",
"        . ; R P ' Y D L ' U H P P P K *.e.} / F F ,.8.. +       ",
"        . ; R P ' Y D L ' U H P P P K *.e.} / F F ,.8.. +       ",
"        . ; R Y ' Y D L ' U H P P P K *.e.} / F F ,.8.. +       ",
"        . - E ^ ' Y D L ' U H P P P K -.i.} / F D <.0.. .       ",
"        % 6 F G _ Y F L _ U H P P P K $.9.} T H F =.&.% <       ",
"          7.. 9 R P _ U D U _ P H J H T ' H F / _ # o           ",
"            . 5 R Y ' U D I ' Y H L H T _ H D / _ . .           ",
"          7.. 5 ! ^ ' I D U ' ' _ _ _ _ _ F D ( ] . .           ",
"            1 0 B S / U F I T T T T T T T L H A Z 2 3           ",
"              5.. 9 ~ ^ ' I D D D F F D D ( { . .               ",
"                s i m V / L F F F F F H L C N y a               ",
"                  4.. q ~ E E E E E R ) { @ .                   ",
"                    h p b x z z z z z v M d h                   ",
"                      1.. . . . . . . . .                       "
};
