/* XPM */
static char *d1e146b42f794cccb96edd27b5678b1avSZYyUwYIF0z9ctm[] = {
/* columns rows colors chars-per-pixel */
"32 32 213 2 ",
"   c None",
".  c black",
"X  c #2B2503",
"o  c #2B2603",
"O  c #2A2505",
"+  c #2A2506",
"@  c #372D00",
"#  c #3D3400",
"$  c #3F3500",
"%  c #3F3600",
"&  c #313132",
"*  c #38383A",
"=  c #403600",
"-  c #413801",
";  c #433900",
":  c #433A02",
">  c #443C04",
",  c #453C05",
"<  c #483C00",
"1  c #493E00",
"2  c #483F03",
"3  c #483F06",
"4  c #4C4100",
"5  c #494006",
"6  c #4A4006",
"7  c #4F4508",
"8  c #574B00",
"9  c #544903",
"0  c #544A04",
"q  c #5A4E04",
"w  c #5A4E05",
"e  c #544A08",
"r  c #544A09",
"t  c #554B0A",
"y  c #584D08",
"u  c #564E23",
"i  c #5B5426",
"p  c #70693F",
"a  c #716A3E",
"s  c gray40",
"d  c #6A6A6A",
"f  c #8F7E0D",
"g  c #917D00",
"h  c #937F00",
"j  c #8E7D10",
"k  c #998400",
"l  c #988409",
"z  c #9E8C13",
"x  c #9E8C14",
"c  c #A69215",
"v  c #C3A800",
"b  c #D0B300",
"n  c #D4BB1C",
"m  c #DBC013",
"M  c #E7C600",
"N  c #EAC700",
"B  c #E9C800",
"V  c #E9C900",
"C  c #EAC800",
"Z  c #EAC900",
"A  c #EACA00",
"S  c #EBCA00",
"D  c #EBCB00",
"F  c #ECCB00",
"G  c #ECCC00",
"H  c #EDCD00",
"J  c #EDCC01",
"K  c #EDCD01",
"L  c #EFCE00",
"P  c #EFCF00",
"I  c #F0CE00",
"U  c #F0CF00",
"Y  c #F1D000",
"T  c #F5D402",
"R  c #F1D106",
"E  c #F2D107",
"W  c #F4D305",
"Q  c #F4D507",
"!  c #FBD900",
"~  c #FCDA00",
"^  c #FDDB00",
"/  c #FFDD00",
"(  c #FFDE00",
")  c #F5D508",
"_  c #F7D70B",
"`  c #F4D50D",
"'  c #F5D60D",
"]  c #F5D60E",
"[  c #F1D314",
"{  c #F8D910",
"}  c #FADA12",
"|  c #FCDC14",
" . c #FCDC15",
".. c #FCDD15",
"X. c #FDDE14",
"o. c #FEDE15",
"O. c #FFDF15",
"+. c #FFE200",
"@. c #FFEB00",
"#. c #FFE009",
"$. c #FFE10B",
"%. c #FFE20C",
"&. c #FFE90D",
"*. c #FFF100",
"=. c #FFE015",
"-. c #FFE116",
";. c #FFE117",
":. c #FFE616",
">. c #FFE716",
",. c #FFE118",
"<. c #FFE119",
"1. c #FFE219",
"2. c #FFE31D",
"3. c #FFE41E",
"4. c #FFE71F",
"5. c #FFE819",
"6. c #FFEC1F",
"7. c #FFF418",
"8. c #FFF41C",
"9. c #FFF51C",
"0. c #F5D823",
"q. c #F5D826",
"w. c #F0D328",
"e. c #F5D92D",
"r. c #F9DD2D",
"t. c #F5DA31",
"y. c #F4DA3A",
"u. c #FFE521",
"i. c #FFE721",
"p. c #FFE722",
"a. c #FFE624",
"s. c #FFE822",
"d. c #FFE923",
"f. c #FFEA22",
"g. c #FFEB22",
"h. c #FFEB23",
"j. c #FFEA25",
"k. c #FFF023",
"l. c #FFF720",
"z. c #FFF024",
"x. c #FFF226",
"c. c #FFF424",
"v. c #FFF425",
"b. c #FFF426",
"n. c #FFF924",
"m. c #FFF925",
"M. c #FFFA24",
"N. c #FFF827",
"B. c #FFFB26",
"V. c #FFFF25",
"C. c #FFF92A",
"Z. c #FFFF28",
"A. c #FFFF29",
"S. c #FFE534",
"D. c #8C8976",
"F. c #8D8A78",
"G. c #F6DD41",
"H. c #F4DB47",
"J. c #F4DC49",
"K. c #F5DC49",
"L. c #F5DD4E",
"P. c #F5DE56",
"I. c #F6DF58",
"U. c #F6DF5A",
"Y. c #F8E04F",
"T. c #FFE850",
"R. c #FFEA50",
"E. c #F6E059",
"W. c #F7E05A",
"Q. c #FFE858",
"!. c #FFE95A",
"~. c #FFE85B",
"^. c #FFE85C",
"/. c #FFE85D",
"(. c #FFE95D",
"). c #FFE860",
"_. c #FFE963",
"`. c #FFE969",
"'. c #FFEA6A",
"]. c #FFED69",
"[. c #FFEB6C",
"{. c #FFEC75",
"}. c #8F8D82",
"|. c #969488",
" X c #999AA0",
".X c #9E9FA3",
"XX c #A2A2A3",
"oX c gray64",
"OX c #A6A7AB",
"+X c #A9A9AA",
"@X c #A9AAAA",
"#X c #FFEC81",
"$X c #FFED86",
"%X c #FFED8C",
"&X c #FFEE90",
"*X c #FDEE9D",
"=X c #FFF29E",
"-X c #FFF2B4",
";X c #FFF2B5",
":X c #FFF3BA",
">X c #FFF3BC",
",X c #FFF3BD",
"<X c #FFF3C0",
"1X c #FFF4C1",
"2X c #FFF4C6",
"3X c #FFF5C6",
"4X c #FFF6C6",
"5X c #FFF6C7",
"6X c #FFF7C9",
"7X c #FFF5D0",
"8X c #FFF8D7",
"9X c #FFFAD7",
"0X c #FFF9DC",
/* pixels */
"                        .X. . . . . . . OX                      ",
"                        }.o + + + + + o |.                      ",
"                      . 9 m.g.g.g.j.g.m.q . XX                  ",
"                      . 0 m.g.p.4.,.4.m.q . XX                  ",
"                      . 3 v.2.;._ M } C.7 .                     ",
"                    F.r j 6.S.Q.r.E } 5.f r D.                  ",
"                  . # V.k.O.).7X`.#.Q M :.Z.: .                 ",
"                  . : v.p.O.^.<X$XQ.q.S O.m.< .                 ",
"                  . , k.p.;.Q.;X:X9XP.S O.v.3 .                 ",
"                  . , k.p.;.Q.,X%X[.e.S O.v.6 .                 ",
"                  . , k.p.;.^.2X^.( T S O.v.6 .                 ",
"                  . , z.p.;.^.,X&X{.t.S O.v.6 .                 ",
"                  . , z.a.;.^.;X:X8XP.S O.v.6 .                 ",
"                  . : %._ E Y.1X#XR.0.S O.v.6 .                 ",
"                  . # ! L S H.2X).#._ S O.v.6 .                 ",
"                  . # ^ Y S J.2X`.;.' S O.v.6 .                 ",
"                  . # ^ Y S J.2X`.,.' S O.v.6 .                 ",
"                  . = ^ Y S J.2X`.,.' S O.v.6 .                 ",
"                  . = ^ Y S J.2X`.,.' S O.v.6 .                 ",
"                  . = ^ Y S J.2X`.,.' S O.v.6 .                 ",
"                  . = ^ Y S J.2X`.;.' S O.v.6 .                 ",
"                  . # ^ Y S J.6XW.L L S O.v.6 .                 ",
"                  . # ^ Y S J.6XI.S L F  .v.6 .                 ",
"                  . # ^ Y S J.6XW.S L S  .v.6 .                 ",
"                  . # ^ Y S J.6XW.S L S O.v.6 .                 ",
"                  . @ @.^ S L.9XW.N S S :.Z.: .                 ",
"                  * u v b U y.*XI.w.[ W m n i &                 ",
"                      . < ( L S I.0X].7.r .                     ",
"                      . 4 ( U S G.=XR.9.y .                     ",
"                    @X. < *.+.( &.9.l.Z.9 . @X                  ",
"                      d p k h h l x z c p s                     ",
"                          . . . . . . .  X                      "
};
