/* XPM */
static char *_b3517401f564f038a0a99239477d6e3[] = {
/* columns rows colors chars-per-pixel */
"32 32 123 2 ",
"   c None",
".  c #000000",
"X  c #090600",
"o  c #0D0B01",
"O  c #02030B",
"+  c #100E03",
"@  c #191609",
"#  c #1F1C0E",
"$  c #070912",
"%  c #090A13",
"&  c #16171C",
"*  c #2B2300",
"=  c #312A06",
"-  c #373007",
";  c #3F3601",
":  c #383315",
">  c #37331D",
",  c #3A361A",
"<  c #3E391C",
"1  c #1A1C24",
"2  c #1F2024",
"3  c #222226",
"4  c #3B3720",
"5  c #453B01",
"6  c #433F22",
"7  c #4E4505",
"8  c #5C5210",
"9  c #6E6005",
"0  c #796907",
"q  c #70641C",
"w  c #786C1A",
"e  c #4C4621",
"r  c #534D2A",
"t  c #5D5835",
"y  c #6C642E",
"u  c #756D32",
"i  c #716B43",
"p  c gray50",
"a  c #D3B702",
"s  c #D5B904",
"d  c #DCBF03",
"f  c #D9BE10",
"g  c #E8C600",
"h  c #EBCB01",
"j  c #EDCE08",
"k  c #F3D304",
"l  c #F9D702",
"z  c #FAD901",
"x  c #F4D40B",
"c  c #FCDC09",
"v  c #E7CB16",
"b  c #F3D412",
"n  c #FBDC14",
"m  c #F0D41E",
"M  c #F7D91B",
"N  c #FCDE1C",
"B  c #FFE206",
"V  c #FFEC07",
"C  c #FFE40A",
"Z  c #FFEA08",
"A  c #FFE313",
"S  c #FFE11C",
"D  c #FFEA1C",
"F  c #FFF91E",
"G  c #EFD322",
"H  c #F6D920",
"J  c #F8DB20",
"K  c #E2CA34",
"L  c #FFE324",
"P  c #FFEC23",
"I  c #FFE429",
"U  c #FFF124",
"Y  c #FFFE26",
"T  c #FFF729",
"R  c #FFFD28",
"E  c #FFE432",
"W  c #FFF63D",
"Q  c #EFD947",
"!  c #FCE442",
"~  c #F7E14E",
"^  c #FFE74E",
"/  c #FFE84F",
"(  c #FDE756",
")  c #FFE952",
"_  c #FDE758",
"`  c #FFEC59",
"'  c #FFF05C",
"]  c #DED074",
"[  c #DED179",
"{  c #FEEB6D",
"}  c #EFE07B",
"|  c #FEEB70",
" . c #FFF773",
".. c #888887",
"X. c #888888",
"o. c #93928C",
"O. c #94938F",
"+. c #999895",
"@. c #A2A19B",
"#. c #9D9DA0",
"$. c #9F9FA1",
"%. c #A8A9AB",
"&. c #AAAAAE",
"*. c #FFFB82",
"=. c #FFFC83",
"-. c #FFFB84",
";. c #FFF08B",
":. c #FFF18F",
">. c #FFFB88",
",. c #FFFA8E",
"<. c #FFFF8D",
"1. c #FFFF8F",
"2. c #FFF191",
"3. c #FFF192",
"4. c #FFF193",
"5. c #FFF194",
"6. c #FFF297",
"7. c #FFFF91",
"8. c #FFFF94",
"9. c #FFFF95",
"0. c #FFFF98",
"q. c #FFFF9A",
"w. c #FFFF9E",
/* pixels */
"                      #.3 3 3 3 2 2 2 2 1                       ",
"                      X.. . . . . . . . .                       ",
"                  #.& i } ] ] ] ] ] [ K v , 1                   ",
"                  ... u <.=.*.*.*.-.>.W F * .                   ",
"              %.O t :.Q j j j j j j j N I H m # $               ",
"              +.X y <.! h h h h h h h n L P U * X               ",
"            O r ,.~ h x L S S S S S L x h N L L J + O           ",
"            . e q.) g x L I E E E L L x h N L U P . .           ",
"            . 6 w.( g x A ( 4.;.4.! S k h N I P L . .           ",
"          @.> u  .! j M E ( { { | E n x j n N L L ; =           ",
"        . : q.` g k S ) 6.! l z z l k N I k h N L Z l . .       ",
"        . , 9.` h x S / 6.! z z c l k N L k h N L C k . O       ",
"        . < 7._ h x S ^ 4.! z c c l k N L k h N L c h . $       ",
"        . < 7.( h x S ^ 4.! z c c l k N L k h N L c h . %       ",
"        . < 7.( h x S ^ 4.! z c c l k N L k h N L c h . %       ",
"        . < 7.( h x S ^ 4.! z c c l k N L k h N L c h . $       ",
"        . < 7.( h x S ^ 4.! z c c l k N L k h N L c h . %       ",
"        . < 7.( h x S ^ 4.! z c c l k N L k h N L c h . %       ",
"        . < 7.( h x S ^ 4.! z c c l k N L k h N L c h . %       ",
"        . < 7._ h x S ^ 4.! z c c l k N L k h N L c h . %       ",
"        . < 7._ h x S ^ 4.! z c c l k N L k h N L c h . %       ",
"        . , 9.` h x S / 6.! z c c l k N L j h N L C k . O       ",
"        . : q.' g x S ) 6.! z c c l k N I k h N L Z z . .       ",
"          o.4 w D n j M ! N k l l n S x x n N c x 5 -           ",
"            . 5 T n h x S c k k k N I k h N I c k . O           ",
"            . 7 R A h x I L S S N L L x h N L C z . .           ",
"            . 7 P n h x L L L L L L L x h N L c k o O           ",
"              O.X 9 Y n h h h h h h h M L C B * o               ",
"                O 8 I b h h h h h h h N I x h @ O               ",
"                  o.. 0 Y A z B B B B B V * .                   ",
"                  &.1 q G f a s s s s s d , 1                   ",
"                      p . . . . . . . . .                       "
};
