/* XPM */
static char *a6c6f5a8dafe4adb875017217228c963[] = {
/* columns rows colors chars-per-pixel */
"32 32 238 2 ",
"   c None",
".  c #010102",
"X  c #020A0E",
"o  c #000609",
"O  c #041614",
"+  c #161318",
"@  c #0A0F14",
"#  c #250718",
"$  c #281A16",
"%  c #35121A",
"&  c #0A241F",
"*  c #16261F",
"=  c #36261C",
"-  c #26231D",
";  c #190C21",
":  c #1A1D20",
">  c #311728",
",  c #182522",
"<  c #0E2E2F",
"1  c #272727",
"2  c #39292A",
"3  c #2A2F31",
"4  c #293535",
"5  c #383838",
"6  c #372C30",
"7  c #4C341A",
"8  c #612E0C",
"9  c #752E00",
"0  c #673B1A",
"q  c #793A0C",
"w  c #5A1828",
"e  c #481F2F",
"r  c #621525",
"t  c #433321",
"y  c #472A34",
"u  c #483638",
"i  c #533233",
"p  c #542D2B",
"a  c #643639",
"s  c #65233C",
"d  c #324D37",
"f  c #7A4518",
"g  c #6D431B",
"h  c #4A423E",
"j  c #5B4936",
"k  c #6A5636",
"l  c #745D37",
"z  c #715128",
"x  c #7D6337",
"c  c #05005B",
"v  c #293F40",
"b  c #1A1C76",
"n  c #1C1778",
"m  c #000B6D",
"M  c #221C68",
"N  c #0F2D7D",
"B  c #232874",
"V  c #52354A",
"C  c #732D53",
"Z  c #134240",
"A  c #374644",
"S  c #344E50",
"D  c #2E6878",
"F  c #454746",
"G  c #574A48",
"H  c #4B5554",
"J  c #775655",
"K  c #674E4D",
"L  c #736159",
"P  c #66675E",
"I  c #6B5471",
"U  c #696C66",
"Y  c #5E6651",
"T  c #813C0A",
"R  c #864B17",
"E  c #8B460F",
"W  c #814F21",
"Q  c #845424",
"!  c #896839",
"~  c #946A30",
"^  c #AA7533",
"/  c #971948",
"(  c #87254B",
")  c #9C2952",
"_  c #AA2856",
"`  c #B6305B",
"'  c #803B61",
"]  c #AE2C58",
"[  c #F3174E",
"{  c #D22759",
"}  c #CC2A4D",
"|  c #FF2A5A",
" . c #FB315B",
".. c #EA2F5D",
"X. c #E93966",
"o. c #FE3563",
"O. c #FE3A65",
"+. c #FD3D6A",
"@. c #855B59",
"#. c #9D475F",
"$. c #B14A47",
"%. c #846C41",
"&. c #89605D",
"*. c #815661",
"=. c #B04F72",
"-. c #8F7D75",
";. c #D25551",
":. c #E5484E",
">. c #DE665B",
",. c #C95377",
"<. c #E4466D",
"1. c #FF456D",
"2. c #E34A73",
"3. c #FE4B75",
"4. c #FD4371",
"5. c #FF517C",
"6. c #FB557A",
"7. c #E85D6D",
"8. c #DC6964",
"9. c #E36C63",
"0. c #FF6C69",
"q. c #FF6679",
"w. c #FF7973",
"e. c #FA746A",
"r. c #FF887D",
"t. c #E4BF66",
"y. c #E6B476",
"u. c #D8B763",
"i. c #F0C867",
"p. c #FFE77C",
"a. c #D5DE76",
"s. c #1C3788",
"d. c #1A308E",
"f. c #2A3E83",
"g. c #583D8B",
"h. c #184B94",
"j. c #324D9A",
"k. c #16739C",
"l. c #397A9B",
"z. c #396D91",
"x. c #2955A4",
"c. c #3752A5",
"v. c #1C76A4",
"b. c #3561AB",
"n. c #4B7B95",
"m. c #4774AC",
"M. c #6A6E81",
"N. c #B87184",
"B. c #8A7D93",
"V. c #FF5883",
"C. c #CD7189",
"Z. c #FC6686",
"A. c #FF6C96",
"S. c #FE7899",
"D. c #388184",
"F. c #55899A",
"G. c #6AB59F",
"H. c #539CB8",
"J. c #518FA9",
"K. c #7C9BA7",
"L. c #56AAB2",
"P. c #77BDAC",
"I. c #67ACB0",
"U. c #748797",
"Y. c #56D1BE",
"T. c #72C2B4",
"R. c #56ABC3",
"E. c #5DC4CB",
"W. c #77D8C6",
"Q. c #6FD7CE",
"!. c #4BE8CE",
"~. c #6DE2CD",
"^. c #7AE2CC",
"/. c #7AE7D7",
"(. c #67EBD0",
"). c #74F8E7",
"_. c #938A97",
"`. c #B0958A",
"'. c #88ABA6",
"]. c #C9898F",
"[. c #FF8483",
"{. c #FF9687",
"}. c #FE9997",
"|. c #F28C91",
" X c #D5A193",
".X c #CCA498",
"XX c #FFAA9C",
"oX c #DD95AA",
"OX c #FF87A5",
"+X c #F891A8",
"@X c #FF8CB2",
"#X c #FE96B1",
"$X c #FF98B7",
"%X c #ED83A1",
"&X c #D8B9AA",
"*X c #D5B1AD",
"=X c #E6BAAC",
"-X c #FFB9B3",
";X c #F3B3A5",
":X c #82C5AC",
">X c #FFCE97",
",X c #D7C4B2",
"<X c #FAC1AD",
"1X c #FEC9B6",
"2X c #FED5BC",
"3X c #E9CAB8",
"4X c #FFFFA4",
"5X c #CAB8C6",
"6X c #FFA7C3",
"7X c #FFBCCD",
"8X c #8AD1C9",
"9X c #B2CDC9",
"0X c #88E6D5",
"qX c #87F1DD",
"wX c #97EBD8",
"eX c #A2E6D6",
"rX c #85ECE1",
"tX c #B3F3EB",
"yX c #FFD6C3",
"uX c #FFDCCC",
"iX c #FCD5C7",
"pX c #F2CCC8",
"aX c #C8E3DE",
"sX c #FFE2CD",
"dX c #FFE3D1",
"fX c #FDE9D6",
"gX c #FFECDA",
"hX c #EAE2D4",
"jX c #FFD3E2",
"kX c #C6EAEA",
"lX c #D4E9F1",
"zX c #FFFCEA",
"xX c #ECFFFB",
"cX c #E3FFFF",
"vX c #FEFEFE",
"bX c #FEFAF6",
"nX c #E9F0EE",
"mX c #D5D6D5",
/* pixels */
"        , , , O X d a.4X-X@X#X#X#X#X#X6XjX*X5 .                 ",
"        y y y > ; j y.>X}.A.A.S.S.S.OX@X6X+X*.6                 ",
"    , 2 ( _ _ ( s ) q.q.1.o.+.4.3.5.V.V.V.A.OXN.V O             ",
"    * 2 ( ) / ) ` { { ..6.Z.6.3.O. .} } } <.OX].G O             ",
"        # # + w :.:.r V 5XbXiX}.0.} w + > e u 5 3 ,             ",
"        5 A d L r.9.$ Z kXvXbX2X{.>.a , & & - 2 6 3             ",
"    . 1 `.3X,X3XsX X- 4 kXvXzXyX2XXXe.$.5 5 $.;.K 4 1 ,         ",
"    5 -.uXbXgXuXdX.X2 A mXvXgXyXfX1Xw.$.5 G 0.w.@.A 4 ,         ",
"X h `.gXzXgXXXr.[.8.u H 3XzXdXuXfX=XJ 1 < K 0.w.@.v 3 1         ",
"X F .XdX3X X>.:.:.$.u S `.=XyXdXdX&XU S H &.9.8.J A 3 1         ",
"    G P G h u i i u 3 3 4 L =XfXdXiX,X&X;X].@.G F F 5 1         ",
"    X X o , H U P P L K A P &XsXyXyXsXuX1X|.F & 4 5 3 1         ",
"        o F *XfX2X1X<X=X&X,X<X<X<X1X1X-X{.;.1 O , 3             ",
"        o h <XzXiXpXhXfXuX-X}.[.[.}.&X;X[.7.K 3 + @             ",
"                g.m.E.8X|.3.O. . .7.K.T.oXOX+XN.y .             ",
"                m h.J._.O.| X.<.X.,.U.K.oX@X$XOX#.e             ",
"            m N k.F.,.| [ O._.T.I.B.,.+.3.5.5.Z.OXC.a #         ",
"            B m.Q.9XZ.o.O.C.eX).!.I.C.O.o.| | 5.@X%XC #         ",
"        b f.l.8XxXvX9X'.'.9XxXcXqXY.L._.2.| o.1.2.` s %         ",
"        b x.H.wXvXvXqX!.!.qXxXxXwXY.L._.2.o.1.+.{ / w %         ",
"        b j.H.W.eXeX/.~.~.^.0X0X(.P.=...o.1.3.+.{ / w %         ",
"        b c.H.W.W.W.W.W.W.W.8X0XqX9XA.4.+.+.O.X.=.' V >         ",
"        b c.L.W.^.^.W.W.W.8XaXnXxXvXbX7XV.| [ ` M.n.j.B         ",
"        b f.m.I.Q.^./.^.~.0XkXbXvXvXvXbXZ.[ _ I l.v.h.d.        ",
"            d.b.R.Q././././.rXtXvXvXvXjX<._ I l.x.s.            ",
"            c B n.G.T.:X:XP.G.T.9XlXlX5X=.C z.k.s.n             ",
"            ; 6 k ! %.%.! x k Y F.H.H.J.n.z.x.d.                ",
"            l ~ R E E T 9 9 9 0 S D D D D.z.f.M                 ",
"        $ l i.i.^ T E f 8 8 q f z k k k k j u 6                 ",
"        $ l t.i.~ 0 0 z ! ~ Q R R R R R f g 0 7                 ",
"            l l j t = l u.t.~ f f R R R f g 0 t                 ",
"            $ = 2 = $ l p.p.^ 0 f W W W z g p t                 "
};
