/* XPM */
static char *_5c4f4a1d29f4bfac52a73148a60e06510L3E6I5fGDJ2FiE[] = {
/* columns rows colors chars-per-pixel */
"32 32 238 2 ",
"   c None",
".  c #010102",
"X  c #020A0D",
"o  c #000609",
"O  c #031614",
"+  c #161218",
"@  c #0A0F14",
"#  c #250717",
"$  c #281817",
"%  c #341219",
"&  c #0A241F",
"*  c #16251F",
"=  c #36261C",
"-  c #26231D",
";  c #190C21",
":  c #1A1D20",
">  c #33192B",
",  c #182523",
"<  c #0E2E2F",
"1  c #272727",
"2  c #39292A",
"3  c #2A2F31",
"4  c #3A2B31",
"5  c #293535",
"6  c #383938",
"7  c #34302F",
"8  c #4A341B",
"9  c #612E0C",
"0  c #752E00",
"q  c #673B1A",
"w  c #793A0C",
"e  c #5A1828",
"r  c #481F2F",
"t  c #621525",
"y  c #472A34",
"u  c #483638",
"i  c #533233",
"p  c #512E29",
"a  c #643539",
"s  c #65233C",
"d  c #324D37",
"f  c #7A4518",
"g  c #6D431B",
"h  c #4A423E",
"j  c #5B4936",
"k  c #6A5636",
"l  c #745D37",
"z  c #715128",
"x  c #7D6337",
"c  c #05005A",
"v  c #293F40",
"b  c #191C76",
"n  c #1B1678",
"m  c #000B6D",
"M  c #221B68",
"N  c #0F2D7C",
"B  c #232873",
"V  c #513549",
"C  c #732D53",
"Z  c #134240",
"A  c #374644",
"S  c #344E50",
"D  c #2E6878",
"F  c #454645",
"G  c #564948",
"H  c #4B5554",
"J  c #775655",
"K  c #674E4D",
"L  c #736159",
"P  c #65665D",
"I  c #6B5471",
"U  c #696C66",
"Y  c #5E6651",
"T  c #813C0A",
"R  c #864B17",
"E  c #8B460F",
"W  c #814F21",
"Q  c #845424",
"!  c #896839",
"~  c #946A30",
"^  c #AA7533",
"/  c #971948",
"(  c #87254B",
")  c #9C2952",
"_  c #AA2855",
"`  c #B6305B",
"'  c #803B61",
"]  c #AE2C58",
"[  c #F3174E",
"{  c #D22759",
"}  c #CC2A4D",
"|  c #FF2A5A",
" . c #FB315B",
".. c #EA2F5D",
"X. c #E93966",
"o. c #FE3563",
"O. c #FE3A65",
"+. c #FD3D6A",
"@. c #855B59",
"#. c #9D475F",
"$. c #B14A47",
"%. c #846C41",
"&. c #89605D",
"*. c #815661",
"=. c #B04F72",
"-. c #8F7D75",
";. c #D25551",
":. c #E5484E",
">. c #DE665B",
",. c #C95377",
"<. c #E3466D",
"1. c #FF456D",
"2. c #E34A73",
"3. c #FE4B75",
"4. c #FD4371",
"5. c #FF507C",
"6. c #FB557A",
"7. c #E85D6D",
"8. c #DB6964",
"9. c #E36C63",
"0. c #FF6C69",
"q. c #FF6679",
"w. c #FF7973",
"e. c #FA746A",
"r. c #FF887D",
"t. c #E4BF66",
"y. c #E6B476",
"u. c #D8B763",
"i. c #F0C867",
"p. c #FFE77C",
"a. c #D5DE76",
"s. c #1B3787",
"d. c #19308E",
"f. c #293E83",
"g. c #573D8B",
"h. c #184B94",
"j. c #324D9A",
"k. c #16739C",
"l. c #397A9B",
"z. c #396D91",
"x. c #2955A4",
"c. c #3752A5",
"v. c #1C76A4",
"b. c #3561AB",
"n. c #4B7B95",
"m. c #4774AC",
"M. c #6A6E81",
"N. c #B87184",
"B. c #8A7D93",
"V. c #FF5883",
"C. c #CD7189",
"Z. c #FC6586",
"A. c #FE7899",
"S. c #FF6C96",
"D. c #388184",
"F. c #55899A",
"G. c #6AB59F",
"H. c #539CB8",
"J. c #518FA9",
"K. c #7C9BA7",
"L. c #56AAB2",
"P. c #77BDAC",
"I. c #67ACB0",
"U. c #748797",
"Y. c #56D1BE",
"T. c #72C6B7",
"R. c #56ABC3",
"E. c #5DC4CB",
"W. c #77D8C7",
"Q. c #6FD7CE",
"!. c #4BE8CE",
"~. c #6DE2CD",
"^. c #7AE2CC",
"/. c #7AE7D7",
"(. c #67EBD0",
"). c #74F8E7",
"_. c #938A97",
"`. c #B0958A",
"'. c #88ABA6",
"]. c #C9898F",
"[. c #FF8483",
"{. c #FF9687",
"}. c #FE9997",
"|. c #F28C91",
" X c #D4A193",
".X c #CCA498",
"XX c #FFA99C",
"oX c #DD95AA",
"OX c #FF87A5",
"+X c #F891A8",
"@X c #FF8CB2",
"#X c #FE96B1",
"$X c #FF98B7",
"%X c #ED83A1",
"&X c #D8B9AA",
"*X c #D5B1AD",
"=X c #E6BAAC",
"-X c #FFB9B3",
";X c #F3B3A5",
":X c #82C5AC",
">X c #FFCE97",
",X c #D7C4B2",
"<X c #FAC1AD",
"1X c #FDC9B6",
"2X c #FED5BC",
"3X c #E9CAB8",
"4X c #FFFFA4",
"5X c #CAB8C6",
"6X c #FFA7C3",
"7X c #FFBCCD",
"8X c #8AD1C9",
"9X c #B2CDC8",
"0X c #88E6D5",
"qX c #87F1DD",
"wX c #97EBD8",
"eX c #A1E6D6",
"rX c #85ECE1",
"tX c #B3F3EB",
"yX c #FFD6C3",
"uX c #FFDCCC",
"iX c #FCD5C7",
"pX c #F2CCC8",
"aX c #C8E3DE",
"sX c #FFE2CD",
"dX c #FFE3D1",
"fX c #FDE9D6",
"gX c #FFEBDA",
"hX c #EAE2D4",
"jX c #FFD3E2",
"kX c #C6EAEA",
"lX c #D4E9F1",
"zX c #FFFCEA",
"xX c #ECFFFB",
"cX c #E3FFFF",
"vX c #FEFEFE",
"bX c #FEFAF6",
"nX c #E9F0EE",
"mX c #D5D6D5",
/* pixels */
"                . 6 *XjX6X#X#X#X#X#X@X-X4Xa.d X O , , *         ",
"                4 *.+X6X@XOXA.A.A.S.S.}.>Xy.j ; > y y y         ",
"            O V N.OXS.V.V.V.5.3.4.+.o.1.q.q.) s ( _ _ ( 2 *     ",
"            O G ].OX<.} } }  .O.3.6.Z.6.X.{ { ` ) / ) ( 2 *     ",
"            * 3 6 u r > + e } 0.}.iXbX5XV t :.:.e + # $         ",
"            3 7 2 - & & * a >.{.2XbXvXkXZ $ 9.r.L d A 6         ",
"        , 1 5 K ;.$.d 6 $.e.XX1XyXzXvXkX5 -  XsX3X,X3X`.1 .     ",
"        , 5 A @.w.0.G 6 $.w.1XfXyXgXvXmXA 7 .XdXuXgXzXuX-.6     ",
"        1 3 v @.w.0.K < 1 J =XfXuXdXzX3XH u 8.[.r.XXgXzXgX`.h X ",
"        1 3 A J 8.9.&.H S U &XdXdXyX=X`.F u $.:.:.>. XpXdX.XF X ",
"        1 6 F G G @.].=X&X,XiXdXfX=XL 5 3 7 u i i u h G P G     ",
"        1 3 6 5 & F |.1XuXsXyXyXsX&XU A K L P P U H , o X X     ",
"            3 , O 1 ;.{.-X1X1X<X<X<X,X&X=X<X1X2XdX*XF .         ",
"            @ : 3 K 7.[.;X&X}.[.[.}.-XuXfXhXpXiXzX<Xh .         ",
"            . r N.+XOXoXT.I.7. . .O.3.|.8XE.m.g.                ",
"            r #.OX$X@XoXK.U.,.X.<.X.| O._.J.h.m                 ",
"        # a C.OXZ.5.5.3.+.,.B.I.T._.O.[ | ,.F.k.N m             ",
"        # C %X@X5.| | o.O.C.I.!.).eXC.O.o.Z.9XQ.m.B             ",
"        % s =.2.1.o.| 2._.L.Y.qXcXxX9X'.'.9XvXxX8Xl.f.b         ",
"        % e / { +.1.o.2._.L.Y.wXxXxXqX!.!.qXvXvXeXL.x.b         ",
"        % e / { +.3.1.o...=.P.(.0X0X^.~.~./.eXeXW.H.j.b         ",
"        > V C =.X.O.+.+.4.A.9XqX0X8XW.W.W.W.W.W.T.L.c.b         ",
"        B j.n.M.` [ | V.7XbXvXxXnXaX8XW.W.W.^.^.W.L.c.b         ",
"        d.h.v.l.I _ [ Z.bXvXvXvXbXkX0X~.^./.^.Q.I.m.f.b         ",
"            s.x.l.I _ <.jXvXvXvXtXrX/./././.Q.R.b.d.            ",
"            n s.k.z.C =.5XlXlX9XT.G.P.:X:XT.G.n.B c             ",
"                d.x.z.n.J.H.H.F.Y k x ! %.! ! k 4 ;             ",
"                M f.z.D.D D D S q 0 0 0 T E E R ~ l             ",
"                4 u j k k k k z f w 9 9 f R w ^ i.i.l $         ",
"                8 q g f R R R R R Q ~ ! z q q ~ i.t.k $         ",
"                8 q g f R R R f f ~ t.u.l = 8 j l l             ",
"                8 j g z f W W f q ^ p.p.l $ = 2 = $             "
};
